<svg width="1080" height="1080" viewBox="0 0 1080 1080" fill="none" xmlns="http://www.w3.org/2000/svg">
<path d="M540.115 1024.51L536.135 1022.19C534.612 1021.31 499.044 1000.17 495.53 970.306C492.608 945.448 497.676 937.722 519.004 905.198C523.077 898.968 527.834 891.73 533.306 883.18L540.115 887.394L546.924 883.18C552.396 891.73 557.122 898.938 561.226 905.198C582.554 937.752 587.622 945.478 584.699 970.306C581.217 1000.17 545.618 1021.31 544.094 1022.19L540.115 1024.51ZM540.115 901.167C537.192 905.656 534.55 909.718 532.093 913.443C511.387 945.051 508.713 949.112 510.983 968.535C513.035 985.911 531.751 1000.66 540.115 1006.43C548.447 1000.66 567.195 985.911 569.247 968.535C571.517 949.112 568.874 945.051 548.136 913.413C545.711 909.687 543.037 905.625 540.115 901.136V901.167Z" fill="#09BA81"/>
<path d="M409.098 918.391L399.397 906.481C443.391 871.912 482.224 856.154 511.605 860.887C526.529 863.3 538.623 870.995 546.551 883.15L533.462 891.395C527.897 882.875 519.689 877.683 509.087 875.973C484.494 872.003 448.988 887.059 409.098 918.422V918.391Z" fill="#09BA81"/>
<path d="M671.132 918.392C631.242 887.06 595.736 871.974 571.143 875.944C560.541 877.654 552.333 882.846 546.768 891.366L533.679 883.12C541.607 870.966 553.701 863.27 568.625 860.858C598.037 856.124 636.839 871.882 680.833 906.452L671.132 918.362V918.392Z" fill="#09BA81"/>
<path d="M540.127 732.442C518.954 759.102 512.394 790.221 520.073 827.264C524.053 844.121 530.893 859.787 540.096 873.988L549.734 887.272C584.494 930.24 642.51 956.106 706.309 952.961C736.187 951.525 770.418 942.15 802.753 926.545L809.593 940.257C775.424 956.747 739.016 966.672 707.086 968.199C703.324 968.383 699.593 968.474 695.862 968.474C632.903 968.474 576.037 942.211 540.096 899.762L530.458 887.272C518.55 870.293 509.782 851.206 504.87 830.531C495.574 785.64 505.492 747.008 534.313 715.462L540.096 709.141V732.442H540.127Z" fill="#09BA81"/>
<path d="M540.124 709.14L545.907 715.461C574.728 747.008 584.646 785.639 575.412 830.317C570.5 851.083 561.67 870.261 549.731 887.271L540.093 899.762C504.12 942.241 447.255 968.474 384.358 968.474C380.658 968.474 376.927 968.382 373.165 968.199C341.172 966.672 304.765 956.747 270.658 940.256L277.529 926.544C309.77 942.149 344.033 951.525 373.942 952.929C437.679 956.075 495.664 930.239 530.454 887.241L540.093 873.957C549.327 859.726 556.229 843.937 560.209 827.019C567.826 790.159 561.266 759.07 540.124 732.41V709.109V709.14Z" fill="#09BA81"/>
<path d="M407.988 657.683L394.433 650.232C417.347 610.012 423.969 575.046 414.051 546.34C402.392 512.472 370.959 498.822 370.648 498.669L376.742 484.621C378.296 485.262 414.642 500.868 428.664 541.179C440.167 574.221 433.203 613.433 407.957 657.683H407.988Z" fill="#09BA81"/>
<path d="M251.197 927.765C188.052 880.278 157.271 832.302 155.966 830.286L169.148 822.193C169.459 822.651 199.866 869.925 260.618 915.641L251.166 927.765H251.197Z" fill="#09BA81"/>
<path d="M350.066 712.591L340.925 700.253C343.257 698.604 345.993 696.772 349.04 694.787C370.866 680.434 407.398 656.431 401.832 605.34C399.998 588.482 392.785 577.305 381.996 574.74C374.97 573.06 367.539 575.595 363.964 580.909C360.046 586.742 361.476 594.682 367.974 603.263L355.538 612.394C340.49 592.636 347.361 577.916 350.999 572.48C358.243 561.731 372.172 556.661 385.696 559.898C402.952 564.021 414.766 580.39 417.316 603.721C423.876 664.004 380.815 692.283 357.714 707.461C354.854 709.323 352.273 711.034 350.097 712.591H350.066Z" fill="#09BA81"/>
<path d="M427.194 710.943C419.95 710.943 412.115 709.294 404.342 706.027L410.467 691.979C419.919 695.949 429.339 696.773 435.682 694.239C438.76 692.987 440.874 691.063 441.962 688.436C443.362 685.108 443.206 681.932 441.527 679.489C438.947 675.732 432.946 673.564 425.018 673.564V658.295C438.387 658.295 448.834 662.815 454.43 670.999C459 677.717 459.715 686.207 456.327 694.269C453.622 700.713 448.523 705.569 441.558 708.378C437.268 710.088 432.386 710.974 427.194 710.974V710.943Z" fill="#09BA81"/>
<path d="M177.142 634.628C171.825 659.273 160.322 671.885 149.222 684.1C140.579 693.598 132.402 702.546 126.028 717.632C120.09 731.649 119.592 752.415 135.977 768.631C149.347 781.854 172.478 784.755 201.113 776.815L205.341 791.505C192.563 795.047 181.495 796.482 171.95 796.482C146.89 796.482 132.309 786.649 124.971 779.381C106.752 761.363 101.653 735.436 111.695 711.768C119.095 694.27 128.951 683.459 137.687 673.901C148.352 662.204 157.555 652.126 162.001 631.482" fill="#09BA81"/>
<path d="M161.938 631.451C163.461 624.366 168.094 602.836 155.657 587.384C142.848 571.473 115.301 566.434 96.7399 576.604C91.0192 579.749 80.9768 586.834 78.0853 599.111C74.9451 612.517 80.386 630.474 94.6257 636.123C106.72 640.918 122.794 636.368 127.676 626.748C129.883 622.381 130.287 617.067 128.702 612.853C127.458 609.585 125.219 607.234 121.986 605.89C118.348 604.363 114.773 604.577 111.912 606.44C109.27 608.181 107.684 611.021 107.715 614.044L92.1695 614.105C92.1385 605.921 96.3047 598.317 103.3 593.736C110.544 589.002 119.561 588.3 128.049 591.842C135.168 594.805 140.578 600.393 143.283 607.57C146.361 615.724 145.708 625.435 141.604 633.558C132.246 652.034 106.254 657.195 88.8428 650.263C66.706 641.468 58.3114 615.601 62.9751 595.66C66.1153 582.284 75.4115 570.771 89.2159 563.228C114.369 549.485 150.403 556.173 167.876 577.886C179.131 591.873 182.271 610.929 177.204 634.566" fill="#09BA81"/>
<path d="M918.278 631.449C922.729 652.093 931.942 662.202 942.618 673.867C951.334 683.426 961.201 694.237 968.64 711.735C978.662 735.433 973.589 761.33 955.349 779.348C948.003 786.616 933.405 796.449 908.317 796.449C898.761 796.449 887.681 795.014 874.888 791.471L879.121 776.782C907.788 784.722 930.946 781.821 944.33 768.598C960.734 752.382 960.236 731.616 954.291 717.599C947.91 702.513 939.724 693.534 931.07 684.067C919.927 671.882 908.411 659.239 903.119 634.595" fill="#09BA81"/>
<path d="M903.056 634.625C897.951 610.988 901.095 591.901 912.394 577.945C929.887 556.263 965.962 549.544 991.143 563.287C1004.96 570.83 1014.27 582.343 1017.41 595.719C1022.08 615.66 1013.68 641.527 991.517 650.322C974.055 657.254 948.065 652.093 938.696 633.617C934.556 625.494 933.933 615.783 937.015 607.629C939.723 600.452 945.139 594.864 952.267 591.901C960.733 588.359 969.759 589.061 977.043 593.795C984.046 598.376 988.217 605.98 988.186 614.164L972.623 614.103C972.623 611.08 971.067 608.24 968.421 606.499C965.557 604.636 961.978 604.422 958.336 605.949C955.099 607.293 952.827 609.644 951.613 612.912C950.025 617.126 950.43 622.44 952.64 626.807C957.527 636.427 973.588 640.977 985.727 636.182C999.983 630.533 1005.43 612.576 1002.29 599.17C999.392 586.893 989.369 579.778 983.611 576.663C965.028 566.524 937.45 571.563 924.626 587.443C912.176 602.895 916.814 624.425 918.339 631.51" fill="#09BA81"/>
<path d="M567.162 373.431L559.202 360.299C635.78 315.499 667.306 269.814 667.617 269.355L680.582 277.784C679.245 279.769 647.066 326.676 567.162 373.4V373.431Z" fill="#09BA81"/>
<path d="M304.925 214.66C295.194 212.919 263.325 205.285 261.584 180.029C260.714 167.203 268.953 155.415 281.638 151.354C292.426 147.903 304.334 150.163 311.983 157.095C316.46 161.157 323.362 170.532 319.134 187.542L304.023 183.938C305.236 178.991 305.796 172.273 301.412 168.272C297.961 165.127 291.805 164.119 286.426 165.829C280.612 167.692 276.663 173.219 277.067 178.96C277.72 188.58 289.162 196.306 307.661 199.605L304.863 214.63L304.925 214.66Z" fill="#09BA81"/>
<path d="M775.318 214.661L772.52 199.636C791.019 196.338 802.461 188.611 803.114 178.992C803.518 173.25 799.569 167.723 793.755 165.86C788.408 164.15 782.252 165.158 778.769 168.303C774.386 172.273 774.945 179.022 776.158 183.97L761.047 187.573C756.85 170.563 763.721 161.188 768.198 157.126C775.847 150.194 787.755 147.934 798.543 151.385C811.228 155.446 819.468 167.234 818.597 180.061C816.856 205.316 784.988 212.951 775.256 214.691L775.318 214.661Z" fill="#09BA81"/>
<path d="M485.303 373.919C475.292 373.919 464.969 369.399 457.57 361.49C449.486 352.817 446.75 342.037 450.077 331.867L464.876 336.57C462.731 343.105 466.555 348.541 469.011 351.168C474.266 356.787 482.412 359.688 488.785 358.253C496.185 356.573 499.76 349.549 501.47 343.96L516.363 348.327C510.86 366.437 498.921 371.659 492.267 373.155C489.998 373.675 487.635 373.919 485.272 373.919H485.303Z" fill="#09BA81"/>
<path d="M516.394 348.329L501.501 343.962C506.911 326.188 471.281 280.441 400.953 246.33L407.824 232.648C486.204 270.669 524.571 321.332 516.363 348.329H516.394Z" fill="#09BA81"/>
<path d="M579.414 404.366L564.117 401.648C566.138 390.746 567.258 362.711 534.239 338.219C512.195 321.881 491.333 320.11 479.115 323.897C473.984 325.485 467.362 328.966 464.875 336.54L450.075 331.837C453.589 321.087 462.263 313.086 474.42 309.299C494.691 303.008 521.212 309.391 543.566 325.973C583.487 355.565 581.902 390.624 579.383 404.305L579.414 404.366Z" fill="#09BA81"/>
<path d="M541.829 445.41C540.586 445.41 539.311 445.318 538.067 445.135C521.465 442.661 508.904 430.874 506.821 415.818C504.302 397.8 516.77 380.882 540.182 370.529L546.555 384.455C529.797 391.876 520.687 402.809 522.211 413.741C523.361 422.017 530.668 428.553 540.399 430.018C548.887 431.271 560.702 419.941 564.091 401.587L579.387 404.305C574.972 428.186 558.898 445.379 541.829 445.379V445.41Z" fill="#09BA81"/>
<path d="M222.905 339.747C201.98 339.747 182.051 328.264 169.583 308.567C156.121 287.312 157.986 257.781 174.216 235.03C199.213 200.033 249.954 187.512 313.411 200.705C346.647 207.607 378.391 218.356 407.803 232.618L400.932 246.299C372.67 232.587 342.17 222.265 310.208 215.638C253.125 203.789 208.199 214.05 186.963 243.795C174.278 261.599 172.599 284.38 182.797 300.505C195.544 320.63 214.634 325.913 228.252 324.111C242.647 322.248 253.747 313.056 257.882 299.528C261.271 288.503 256.825 282.09 252.503 278.67C245.881 273.387 235.434 272.043 228.75 275.646C223.464 278.487 221.257 283.892 222.158 291.74L206.706 293.45C205.12 279.464 210.437 268.103 221.288 262.271C233.507 255.705 250.762 257.629 262.297 266.821C273.459 275.708 277.252 289.236 272.744 303.956C266.867 323.073 250.607 336.601 230.273 339.258C227.817 339.594 225.33 339.747 222.874 339.747H222.905Z" fill="#09BA81"/>
<path d="M527.712 161.432C502.03 161.432 488.879 144.667 484.837 138.315C470.784 116.205 474.328 86.2463 493.107 68.5645L503.865 79.5889C490.309 92.354 487.791 114.097 498.02 130.191C507.907 145.705 526.095 150.072 547.983 142.162L553.362 156.485C543.692 159.997 535.173 161.402 527.712 161.402V161.432Z" fill="#09BA81"/>
<path d="M542.848 134.344C530.754 134.344 520.587 129.916 514.307 121.304C504.979 108.478 503.985 83.6504 531.873 55.9824L542.911 66.732C523.168 86.3072 520.649 103.775 526.93 112.418C533.179 121.03 548.103 121.396 564.954 113.395L571.732 127.137C561.565 131.962 551.678 134.344 542.817 134.344H542.848Z" fill="#09BA81"/>
<path d="M405.195 838.503C398.169 838.503 390.956 836.64 383.867 832.853C369.223 825.096 362.414 808.178 367.668 792.603C372.052 779.533 385.919 766.89 411.538 770.554L409.299 785.671C395.588 783.716 385.546 788.114 382.406 797.428C380.012 804.574 382.281 814.713 391.235 819.446C402.428 825.371 412.999 824.333 422.668 816.331C440.235 801.795 449.469 768.752 442.069 747.009L455.998 743.619C465.512 771.501 455.252 809.369 432.68 828.028C424.223 835.021 414.865 838.533 405.195 838.533V838.503Z" fill="#09BA81"/>
<path d="M435.373 224.677L431.113 209.988C442.679 206.751 452.317 201.224 462.484 195.391C479.335 185.71 498.425 174.716 530.107 172.212C569.81 169.036 589.304 153.675 589.709 125.182C589.802 118.708 588.465 109.547 581.532 102.614C575.438 96.5373 566.266 93.4529 554.327 93.4529V78.1836C570.37 78.1836 583.615 82.9171 592.6 91.8954C601.088 100.355 605.441 111.929 605.254 125.396C604.881 151.018 591.73 182.595 531.351 187.42C503.213 189.649 486.486 199.269 470.319 208.553C459.748 214.63 448.835 220.921 435.342 224.677H435.373Z" fill="#09BA81"/>
<path d="M905.994 235.059C880.996 200.062 830.256 187.541 766.799 200.734C739.283 206.445 712.732 214.782 687.859 225.501L694.077 239.488C717.955 229.196 743.512 221.195 770.001 215.667C827.084 203.818 872.011 214.049 893.246 243.824C905.931 261.628 907.61 284.41 897.412 300.534C884.665 320.659 865.575 325.912 851.957 324.14C837.562 322.278 826.463 313.086 822.328 299.557C818.939 288.532 823.385 282.119 827.706 278.699C834.329 273.416 844.775 272.072 851.46 275.676C856.745 278.516 858.953 283.921 858.051 291.77L873.503 293.48C875.089 279.493 869.773 268.133 858.922 262.3C846.703 255.734 829.447 257.658 817.913 266.85C806.751 275.737 802.958 289.265 807.466 303.985C813.342 323.102 829.603 336.631 849.936 339.288C852.393 339.624 854.88 339.776 857.336 339.776C878.26 339.776 898.19 328.294 910.657 308.596C924.12 287.342 922.254 257.811 906.025 235.059H905.994Z" fill="#09BA81"/>
<path d="M687.86 225.5C680.429 228.707 671.537 233.074 662.116 237.715C632.02 252.527 590.762 272.835 557.899 273.262C538.996 273.537 524.041 268.956 514.9 260.131C506.195 251.702 504.889 241.716 504.889 236.494H489.343C489.343 249.595 494.535 261.871 503.956 271.002C512.444 279.217 528.549 288.929 558.086 288.532C594.524 288.043 637.616 266.849 669.05 251.366C678.284 246.816 686.989 242.541 694.078 239.487L687.86 225.5Z" fill="#09BA81"/>
<path d="M727.347 111.379C706.951 94.0335 677.664 89.0252 652.729 98.6143C642.593 102.523 618.373 114.433 612.093 140.758C608.206 156.729 611.378 172.273 621.047 184.489C630.623 196.613 645.795 203.972 661.652 204.247C685.468 204.736 696.194 194.963 701.106 186.749C705.117 180.061 709.594 165.249 701.106 152.118C694.36 141.704 681.643 135.902 668.741 137.337L670.513 152.515C677.57 151.721 684.41 154.775 688.017 160.302C693.551 168.853 687.986 178.595 687.737 178.992C683.695 185.741 674.834 189.222 661.963 188.947C650.77 188.764 640.075 183.573 633.359 175.083C626.674 166.593 624.498 155.66 627.265 144.239C631.867 124.939 650.614 115.807 658.449 112.784C678.068 105.241 701.137 109.181 717.211 122.862C731.576 135.077 739.068 154.225 736.768 172.823C732.757 205.194 699.676 220.585 693.085 223.334C687.115 225.838 681.332 227.792 675.892 229.167C648.873 236.038 632.053 228.556 610.756 219.058C592.163 210.782 571.084 201.407 540.179 201.407V216.676C567.726 216.676 586.349 224.952 604.351 232.984C620.549 240.191 636.095 247.123 655.931 247.123C663.237 247.123 671.103 246.177 679.809 243.978C685.996 242.42 692.494 240.191 699.179 237.412C707.138 234.083 747.152 215.394 752.189 174.686C755.111 151.11 745.598 126.832 727.378 111.349L727.347 111.379Z" fill="#09BA81"/>
<path d="M424.345 247.184C411.971 247.184 397.949 244.466 381.128 237.443C373.169 234.114 333.155 215.424 328.118 174.716C325.196 151.141 334.71 126.862 352.929 111.379C373.325 94.0335 402.612 89.0252 427.547 98.6143C437.683 102.523 461.903 114.433 468.215 140.788C472.101 156.76 468.899 172.273 459.26 184.489C449.684 196.582 434.512 203.972 418.655 204.247C394.84 204.705 384.144 194.994 379.201 186.749C375.19 180.061 370.713 165.249 379.201 152.118C385.948 141.704 398.633 135.902 411.567 137.337L409.794 152.515C402.737 151.721 395.897 154.775 392.29 160.333C386.756 168.884 392.352 178.625 392.57 179.022C396.612 185.771 405.566 189.222 418.313 188.978C429.537 188.795 440.233 183.603 446.948 175.113C453.633 166.624 455.809 155.691 453.042 144.3C448.41 124.969 429.693 115.838 421.827 112.815C402.208 105.272 379.139 109.211 363.065 122.892C348.701 135.108 341.208 154.256 343.508 172.854C347.519 205.224 380.6 220.616 387.191 223.364C424.718 239.061 444.492 230.236 469.52 219.089C488.113 210.813 509.193 201.438 540.097 201.438V216.707C512.55 216.707 493.927 224.983 475.925 233.015C459.758 240.222 444.15 247.154 424.314 247.154L424.345 247.184Z" fill="#09BA81"/>
<path d="M540.12 269.842V254.573C540.12 254.573 553.053 254.084 557.593 243.273C562.194 232.31 556.007 223.851 552.058 220.919C546.431 216.705 544.97 216.705 540.12 216.705V201.436C548.265 201.436 553.022 202.443 561.479 208.765C571.553 216.277 579.108 232.096 571.957 249.106C565.055 265.505 548.11 269.842 540.12 269.842Z" fill="#09BA81"/>
<path d="M369.503 924.53C338.909 938.119 306.295 939.738 282.199 928.836C245.76 912.314 235.5 884.555 232.64 869.469C228.723 848.794 233.759 827.753 245.512 815.843C270.291 790.71 301.942 796.604 320.876 812.728C332.1 822.287 336.018 837.067 330.794 850.352C327.001 860.032 317.27 870.141 301.227 869.896C292.521 869.713 285.992 866.781 282.355 861.376C278.872 856.215 278.344 849.1 280.924 842.809L266.529 837.067C262.052 847.939 263.14 860.46 269.39 869.774C275.857 879.424 287.049 884.891 300.916 885.166C301.258 885.166 301.6 885.166 301.973 885.166C321.654 885.166 338.194 873.988 345.314 855.818C352.9 836.457 347.304 815.019 331.074 801.185C306.015 779.838 264.757 774.372 234.35 805.216C218.991 820.79 212.462 846.504 217.374 872.278C220.794 890.266 232.92 923.308 275.701 942.7C288.293 948.411 302.781 951.251 318.047 951.251C336.826 951.251 356.818 946.945 375.908 938.455L369.503 924.53Z" fill="#09BA81"/>
<path d="M409.7 691.703C380.723 682.816 359.425 685.534 340.584 700.468L350.347 712.347C364.866 700.804 381.22 698.971 405.036 706.27C439.236 716.745 462.648 770.92 438.583 850.626C429.038 882.294 403.823 909.229 369.437 924.499L375.841 938.424C414.332 921.292 442.625 890.876 453.476 854.962C473.53 788.48 465.011 708.652 409.637 691.672L409.7 691.703Z" fill="#09BA81"/>
<path d="M435.214 224.706L431.234 209.956C443.67 206.719 453.557 200.978 464.035 194.9C480.42 185.403 499.012 174.653 530.072 172.18C578.792 168.301 602.888 183.326 624.123 196.611C632.548 201.863 640.477 206.811 649.4 210.2L643.834 224.462C633.45 220.553 624.465 214.934 615.79 209.498C595.643 196.916 574.875 183.937 531.316 187.388C503.8 189.587 487.571 198.962 471.901 208.032C460.957 214.354 449.671 220.889 435.182 224.676L435.214 224.706Z" fill="#09BA81"/>
<path d="M191.568 617.618L189.143 601.615C189.081 601.31 183.546 568.115 152.424 539.928C140.548 529.178 130.132 524.536 120.09 520.047C105.166 513.39 91.0817 507.068 78.552 483.676C60.0218 449.075 76.9353 411.207 77.6815 409.589L86.2937 390.716L92.2321 410.566C92.2321 410.566 95.7143 421.896 102.43 428.462C101.466 414.628 101.528 393.006 107.28 367.721C117.012 324.783 131.624 303.193 132.246 302.307L149.626 277.082L146.424 307.376C146.393 307.743 142.817 345.763 166.167 376.974C173.224 386.41 181.463 394.9 190.138 403.878C215.353 429.897 243.956 459.397 239.946 516.26C236.277 568.42 203.973 604.15 202.605 605.647L191.568 617.679V617.618ZM86.729 433.806C84.677 445.686 84.3661 461.779 92.2943 476.56C102.337 495.341 112.472 499.861 126.526 506.152C137.159 510.916 149.222 516.291 162.933 528.689C184.324 548.02 194.957 569.275 200.087 583.353C209.228 569.642 222.317 545.211 224.431 515.13C227.976 464.986 204.129 440.372 178.852 414.353C170.208 405.436 161.254 396.213 153.606 385.983C141.169 369.37 135.324 351.382 132.682 336.693C129.23 345.763 125.562 357.215 122.422 371.019C113.436 410.749 119.561 441.227 119.623 441.532L122.328 454.481L109.55 450.327C108.524 449.991 99.4452 446.877 91.8901 439.73C89.9625 437.929 88.2524 435.883 86.729 433.806Z" fill="#09BA81"/>
<path d="M198.216 556.57L191.251 545.637C191.251 545.637 183.137 532.994 167.467 514.09C144.304 486.178 152.108 437.347 152.481 435.27L154.16 425.162L163.549 429.651C165.104 430.384 201.542 448.158 212.051 486.056C220.57 516.808 205.304 544.171 204.652 545.301L198.247 556.57H198.216ZM166.689 449.562C165.943 464.221 166.845 489.202 179.53 504.471C186.463 512.838 191.966 519.984 195.977 525.451C198.651 516.442 200.734 503.494 197.034 490.057C191.531 470.207 176.732 456.739 166.689 449.532V449.562Z" fill="#09BA81"/>
<path d="M888.616 617.525L877.672 605.615C876.304 604.119 844 568.389 840.332 516.229C836.321 459.366 864.925 429.866 890.14 403.847C898.845 394.869 907.053 386.409 914.111 376.942C937.585 345.549 933.916 307.712 933.854 307.345L930.651 277.051L948.031 302.276C948.653 303.161 963.266 324.752 972.997 367.689C978.718 393.006 978.811 414.627 977.847 428.431C984.563 421.865 988.014 410.627 988.045 410.535L994.015 390.837L1002.6 409.588C1003.31 411.176 1020.22 449.075 1001.73 483.675C989.196 507.067 975.111 513.389 960.188 520.046C950.145 524.535 939.73 529.177 927.853 539.927C896.7 568.083 891.166 601.309 891.134 601.615L888.647 617.495L888.616 617.525ZM947.565 336.723C944.922 351.443 939.077 369.399 926.641 386.012C918.992 396.243 910.038 405.465 901.395 414.383C876.149 440.432 852.302 465.016 855.815 515.16C857.929 545.241 871.019 569.671 880.159 583.383C885.289 569.274 895.923 548.05 917.313 528.719C931.024 516.321 943.088 510.915 953.721 506.182C967.743 499.921 977.91 495.371 987.952 476.59C995.911 461.718 995.6 445.654 993.548 433.775C992.025 435.882 990.284 437.928 988.356 439.73C980.77 446.906 971.691 449.991 970.696 450.327L957.887 454.51L960.623 441.532C960.747 440.982 966.779 410.596 957.825 371.018C954.716 357.215 951.047 345.763 947.565 336.693V336.723Z" fill="#09BA81"/>
<path d="M882.026 556.57L875.621 545.332C874.968 544.172 859.703 516.84 868.222 486.087C878.699 448.189 915.169 430.415 916.724 429.683L926.113 425.193L927.792 435.302C928.134 437.378 935.938 486.209 912.806 514.122C897.136 532.995 889.115 545.515 889.022 545.668L882.057 556.601L882.026 556.57ZM913.552 449.563C903.51 456.74 888.711 470.207 883.208 490.088C879.508 503.494 881.591 516.443 884.265 525.482C888.306 520.016 893.779 512.87 900.712 504.502C913.366 489.233 914.299 464.283 913.552 449.594V449.563Z" fill="#09BA81"/>
<path d="M672.254 657.683C647.039 613.433 640.074 574.221 651.547 541.179C665.569 500.868 701.946 485.262 703.469 484.621L709.563 498.669C709.283 498.791 677.85 512.472 666.191 546.309C656.304 575.046 662.895 609.982 685.809 650.201L672.254 657.653V657.683Z" fill="#09BA81"/>
<path d="M829.046 927.765L819.594 915.641C880.502 869.803 910.784 822.682 911.064 822.193L924.247 830.255C922.972 832.271 892.161 880.247 829.015 927.735L829.046 927.765Z" fill="#09BA81"/>
<path d="M730.18 712.591C728.004 711.034 725.423 709.354 722.563 707.461C699.431 692.252 656.401 663.974 662.961 603.721C665.48 580.42 677.325 564.021 694.581 559.898C708.105 556.661 722.034 561.731 729.278 572.48C732.916 577.885 739.787 592.636 724.739 612.394L712.303 603.263C718.832 594.682 720.262 586.742 716.313 580.909C712.738 575.595 705.307 573.06 698.281 574.74C687.523 577.305 680.279 588.482 678.445 605.34C672.879 656.431 709.411 680.434 731.237 694.787C734.284 696.772 737.02 698.604 739.352 700.253L730.211 712.591H730.18Z" fill="#09BA81"/>
<path d="M653.041 710.943C647.849 710.943 642.998 710.088 638.677 708.378C631.681 705.569 626.582 700.682 623.877 694.269C620.52 686.207 621.204 677.717 625.774 670.999C631.37 662.815 641.817 658.295 655.186 658.295V673.564C647.289 673.564 641.257 675.732 638.708 679.489C637.029 681.932 636.873 685.108 638.273 688.436C639.361 691.032 641.475 692.987 644.553 694.239C650.896 696.804 660.347 695.949 669.768 691.979L675.893 706.027C668.12 709.294 660.254 710.943 653.041 710.943Z" fill="#09BA81"/>
<path d="M675.05 838.502C665.38 838.502 656.022 834.99 647.565 827.997C624.993 809.337 614.329 771.47 623.843 743.588L638.176 746.978C630.745 768.721 640.01 801.794 657.576 816.3C667.246 824.301 677.817 825.34 689.01 819.415C697.964 814.682 700.233 804.543 697.808 797.397C694.668 788.083 684.626 783.716 670.915 785.64L668.676 770.523C694.326 766.858 708.162 779.532 712.545 792.572C717.8 808.146 710.991 825.065 696.347 832.822C689.227 836.578 682.045 838.471 675.019 838.471L675.05 838.502Z" fill="#09BA81"/>
<path d="M845.9 805.216C815.493 774.403 774.235 779.869 749.175 801.185C732.946 815.019 727.349 836.457 734.936 855.819C742.055 873.989 758.596 885.166 778.277 885.166C778.619 885.166 778.961 885.166 779.334 885.166C793.2 884.891 804.393 879.425 810.86 869.775C817.109 860.46 818.197 847.94 813.72 837.068L799.325 842.809C801.906 849.1 801.377 856.216 797.895 861.377C794.257 866.782 787.728 869.744 779.023 869.897C763.135 870.233 753.248 860.002 749.455 850.352C744.263 837.068 748.149 822.287 759.373 812.729C778.276 796.604 809.958 790.71 834.738 815.844C846.49 827.754 851.527 848.795 847.61 869.469C844.749 884.555 834.489 912.315 798.05 928.836C773.986 939.739 741.34 938.151 710.747 924.53L704.342 938.456C723.463 946.946 743.423 951.252 762.202 951.252C777.468 951.252 791.957 948.412 804.548 942.701C847.361 923.309 859.455 890.236 862.875 872.279C867.757 846.504 861.259 820.821 845.9 805.216Z" fill="#09BA81"/>
<path d="M675.176 706.27C698.992 698.971 715.345 700.804 729.865 712.347L739.628 700.468C720.817 685.534 699.489 682.816 670.512 691.703C615.17 708.652 606.62 788.48 626.674 854.993C637.524 890.906 665.817 921.323 704.308 938.455L710.713 924.529C676.326 909.229 651.142 882.294 641.566 850.656C617.502 770.951 640.913 716.775 675.114 706.3L675.176 706.27Z" fill="#09BA81"/>
<path d="M346.584 769.331C335.793 769.331 323.879 765.632 313.213 757.033C304.574 750.068 296.153 742.394 288.013 734.966C274.01 722.175 260.756 710.124 247.75 702.697C229.381 692.218 217.499 693.882 210.731 697.118C203.838 700.416 200.065 706.549 199.379 711.172C198.162 719.309 201.437 726.583 208.548 731.668C218.497 738.788 237.49 742.239 260.943 730.589L267.929 744.366C243.103 756.694 216.844 756.602 199.41 744.15C187.496 735.644 181.851 722.792 183.941 708.922C185.531 698.197 193.203 688.365 203.932 683.249C214.068 678.41 231.252 675.544 255.516 689.351C270.049 697.611 283.897 710.279 298.586 723.655C306.539 730.928 314.804 738.418 323.068 745.106C336.76 756.14 354.256 755.985 362.021 748.897C369.569 741.962 364.08 731.576 360.15 725.997L372.937 717.152C386.472 736.26 381.67 751.886 372.656 760.177C366.388 765.91 357.031 769.331 346.615 769.331H346.584Z" fill="white"/>
<path d="M741.093 767.862C732.103 767.862 723.705 765.273 717.368 760.033C705.849 750.51 704.007 734.853 712.467 718.148L726.421 725.052C723.424 730.939 719.585 741.788 727.389 748.229C734.631 754.208 749.99 754.609 763.195 744.9C773.279 737.504 782.956 728.566 792.321 719.936C805.245 708.039 817.451 696.79 830.531 689.362C854.85 675.524 872.02 678.421 882.165 683.259C892.904 688.376 900.552 698.238 902.176 708.933C904.267 722.833 898.617 735.654 886.692 744.161C869.241 756.612 842.956 756.705 818.107 744.377L825.1 730.6C848.575 742.25 867.587 738.798 877.545 731.678C884.694 726.593 887.94 719.289 886.723 711.183C886.036 706.56 882.259 700.396 875.36 697.129C868.617 693.892 856.692 692.259 838.305 702.707C826.785 709.272 815.204 719.905 802.966 731.216C793.289 740.123 783.268 749.339 772.498 757.259C762.946 764.287 751.645 767.831 741.093 767.831V767.862Z" fill="white"/>
<path d="M523.927 556.878C526.706 552.501 529.796 548.002 533.168 543.348C536.165 539.218 539.411 534.965 542.877 530.557C546.03 526.551 549.339 522.421 552.866 518.136C558.673 511.079 564.916 503.62 571.597 495.638C588.954 474.957 608.652 451.472 630.41 422.778C640.962 408.878 651.919 394.731 662.533 381.047C682.606 355.158 701.555 330.717 717.351 308.465C724.75 298.047 736.175 296.414 744.354 298.386C752.564 300.328 761.961 306.924 763.709 319.498L816.935 699.145L832.387 697.019L779.162 317.372C776.789 300.42 764.833 287.383 748.007 283.377C731.149 279.37 714.51 285.565 704.552 299.588C688.974 321.563 670.088 345.881 650.14 371.647C639.526 385.362 628.506 399.539 617.923 413.501C596.383 441.887 576.841 465.218 559.578 485.775C553.678 492.802 548.121 499.428 542.877 505.808C537.632 499.459 532.075 492.833 526.175 485.775C508.912 465.218 489.37 441.917 467.83 413.501C457.247 399.539 446.258 385.362 435.613 371.647C415.634 345.881 396.779 321.563 381.17 299.588C371.212 285.565 354.573 279.339 337.715 283.377C320.858 287.383 308.933 300.42 306.56 317.372L253.334 697.019L268.787 699.145L322.013 319.498C323.792 306.893 333.158 300.328 341.368 298.386C349.578 296.414 360.972 298.047 368.371 308.465C384.167 330.686 403.116 355.158 423.189 381.047C433.803 394.731 444.76 408.847 455.28 422.747C477.039 451.441 496.737 474.895 514.094 495.607C520.775 503.589 527.049 511.048 532.824 518.106C529.391 522.421 526.113 526.612 523.053 530.711C516.685 522.883 509.661 514.531 502.075 505.438C484.593 484.604 464.802 460.995 442.793 431.993C432.304 418.155 421.347 404.039 410.795 390.416C390.629 364.373 371.555 339.809 355.603 317.31C352.2 312.502 347.518 312.78 345.051 313.365C342.585 313.951 338.308 315.8 337.497 321.625L284.333 700.84H300.098L351.045 337.528C365.343 357.099 381.513 377.934 398.464 399.817C409.016 413.439 419.942 427.493 430.369 441.27C452.596 470.58 472.544 494.343 490.119 515.301C498.766 525.595 506.695 535.088 513.782 543.902C502.294 561.069 494.833 576.942 492.242 593.955C487.871 622.526 496.956 639.97 505.322 649.555C516.529 662.407 529.422 666.938 542.877 666.938C559.578 666.938 569.255 662.376 580.431 649.555C588.797 639.97 597.85 622.526 593.511 593.955C590.92 576.942 583.459 561.1 571.971 543.902C579.058 535.088 587.018 525.595 595.634 515.301C613.241 494.343 633.157 470.58 655.384 441.27C665.842 427.493 676.768 413.408 687.32 399.786C704.271 377.934 720.441 357.069 734.708 337.528L785.655 700.84H801.42L748.256 321.625C747.445 315.831 743.168 313.951 740.702 313.365C738.235 312.78 733.553 312.502 730.119 317.31C714.167 339.809 695.093 364.373 674.926 390.416C664.344 404.07 653.418 418.186 642.897 432.024C620.889 461.026 601.097 484.635 583.615 505.469C575.998 514.531 569.006 522.914 562.606 530.742C559.047 535.119 555.707 539.31 552.585 543.348C549.058 547.878 545.811 552.255 542.877 556.477C541.69 558.142 540.566 559.806 539.505 561.439C539.505 561.47 539.474 561.501 539.443 561.563C532.356 572.905 521.867 591.705 521.867 608.533C521.867 621.971 528.61 635.254 542.814 635.254C557.018 635.254 563.761 621.971 563.761 608.533C563.761 595.804 557.767 581.966 551.773 571.055C554.614 566.771 558.485 561.378 561.857 556.878C570.504 570.562 576.123 583.26 578.09 596.236C580.868 614.543 577.684 629.121 568.631 639.508C560.171 649.216 552.648 652.853 542.908 652.853C532.169 652.853 525.644 649.247 517.185 639.508C508.131 629.09 504.947 614.543 507.726 596.236C509.692 583.26 515.311 570.562 523.959 556.878H523.927ZM542.939 618.334C542.939 618.334 542.876 618.334 542.845 618.334C542.845 618.334 542.814 618.334 542.783 618.334C539.443 618.334 535.54 616.516 535.416 606.961C535.291 597.407 543.47 583.907 543.47 583.907L543.532 586.435C545.873 590.811 550.244 599.965 550.15 606.961C550.025 616.361 546.217 618.272 542.908 618.303L542.939 618.334Z" fill="white"/>
</svg>
