<svg viewBox="515 499 994 1008" xmlns="http://www.w3.org/2000/svg">
<path d="M997.888 1205.48L995.068 1203.83C993.988 1203.21 968.785 1188.23 966.295 1167.07C964.224 1149.45 967.815 1143.98 982.929 1120.93C985.815 1116.52 989.186 1111.39 993.063 1105.33L997.888 1108.32L1002.71 1105.33C1006.59 1111.39 1009.94 1116.5 1012.85 1120.93C1027.96 1144 1031.55 1149.48 1029.48 1167.07C1027.01 1188.23 1001.79 1203.21 1000.71 1203.83L997.888 1205.48ZM997.888 1118.08C995.817 1121.26 993.944 1124.13 992.204 1126.78C977.531 1149.17 975.637 1152.05 977.245 1165.81C978.699 1178.13 991.962 1188.58 997.888 1192.67C1003.79 1188.58 1017.08 1178.13 1018.53 1165.81C1020.14 1152.05 1018.27 1149.17 1003.57 1126.75C1001.85 1124.11 999.959 1121.24 997.888 1118.05V1118.08Z" fill="#BC9344"/>
<path d="M905.049 1130.28L898.175 1121.84C929.349 1097.35 956.866 1086.18 977.686 1089.53C988.261 1091.24 996.831 1096.7 1002.45 1105.31L993.174 1111.15C989.23 1105.11 983.414 1101.44 975.901 1100.22C958.475 1097.41 933.315 1108.08 905.049 1130.3V1130.28Z" fill="#BC9344"/>
<path d="M1090.73 1130.28C1062.46 1108.08 1037.3 1097.39 1019.87 1100.2C1012.36 1101.41 1006.55 1105.09 1002.6 1111.13L993.327 1105.29C998.945 1096.68 1007.52 1091.22 1018.09 1089.51C1038.93 1086.16 1066.43 1097.32 1097.6 1121.82L1090.73 1130.26V1130.28Z" fill="#BC9344"/>
<path d="M997.898 998.517C982.894 1017.41 978.246 1039.46 983.687 1065.71C986.507 1077.65 991.354 1088.75 997.875 1098.82L1004.71 1108.23C1029.34 1138.68 1070.45 1157.01 1115.65 1154.78C1136.83 1153.76 1161.08 1147.12 1183.99 1136.06L1188.84 1145.78C1164.63 1157.46 1138.83 1164.49 1116.2 1165.58C1113.54 1165.71 1110.9 1165.77 1108.25 1165.77C1063.64 1165.77 1023.34 1147.16 997.875 1117.08L991.046 1108.23C982.608 1096.2 976.395 1082.67 972.914 1068.02C966.327 1036.21 973.355 1008.84 993.778 986.485L997.875 982.006V998.517H997.898Z" fill="#BC9344"/>
<path d="M997.895 982.006L1001.99 986.485C1022.42 1008.84 1029.44 1036.21 1022.9 1067.87C1019.42 1082.59 1013.16 1096.18 1004.7 1108.23L997.873 1117.08C972.383 1147.18 932.088 1165.77 887.519 1165.77C884.897 1165.77 882.253 1165.71 879.588 1165.58C856.918 1164.49 831.119 1157.46 806.951 1145.78L811.82 1136.06C834.666 1147.12 858.944 1153.76 880.138 1154.76C925.302 1156.98 966.39 1138.68 991.043 1108.21L997.873 1098.8C1004.42 1088.71 1009.31 1077.52 1012.13 1065.54C1017.52 1039.42 1012.88 1017.39 997.895 998.495V981.984V982.006Z" fill="#BC9344"/>
<path d="M904.263 945.544L894.658 940.264C910.895 911.765 915.587 886.987 908.559 866.646C900.298 842.647 878.024 832.975 877.804 832.866L882.122 822.912C883.224 823.367 908.978 834.424 918.914 862.989C927.066 886.403 922.131 914.188 904.241 945.544H904.263Z" fill="#BC9344"/>
<path d="M793.161 1136.93C748.416 1103.28 726.605 1069.28 725.679 1067.85L735.021 1062.12C735.241 1062.44 756.787 1095.94 799.836 1128.33L793.139 1136.93H793.161Z" fill="#BC9344"/>
<path d="M863.219 984.452L856.742 975.709C858.395 974.541 860.333 973.242 862.492 971.836C877.958 961.665 903.845 944.656 899.901 908.453C898.601 896.508 893.49 888.588 885.845 886.77C880.866 885.58 875.601 887.376 873.067 891.141C870.291 895.275 871.305 900.901 875.909 906.982L867.097 913.452C856.434 899.451 861.303 889.021 863.88 885.169C869.014 877.552 878.884 873.959 888.467 876.253C900.694 879.175 909.066 890.773 910.873 907.306C915.521 950.023 885.008 970.061 868.639 980.816C866.612 982.136 864.784 983.348 863.241 984.452H863.219Z" fill="#BC9344"/>
<path d="M917.873 983.283C912.74 983.283 907.188 982.115 901.68 979.799L906.02 969.845C912.718 972.658 919.393 973.243 923.888 971.446C926.069 970.559 927.567 969.196 928.338 967.335C929.329 964.976 929.219 962.726 928.029 960.995C926.201 958.333 921.949 956.796 916.331 956.796V945.977C925.804 945.977 933.207 949.179 937.172 954.979C940.411 959.739 940.918 965.755 938.516 971.468C936.6 976.034 932.986 979.475 928.051 981.466C925.011 982.677 921.552 983.305 917.873 983.305V983.283Z" fill="#BC9344"/>
<path d="M740.685 929.205C736.918 946.669 728.766 955.606 720.901 964.262C714.777 970.992 708.983 977.332 704.466 988.022C700.258 997.955 699.906 1012.67 711.516 1024.16C720.99 1033.53 737.381 1035.59 757.671 1029.96L760.668 1040.37C751.613 1042.88 743.77 1043.9 737.006 1043.9C719.249 1043.9 708.916 1036.93 703.717 1031.78C690.807 1019.01 687.194 1000.64 694.31 983.867C699.553 971.468 706.537 963.807 712.728 957.034C720.284 948.746 726.806 941.605 729.956 926.977" fill="#BC9344"/>
<path d="M729.912 926.955C730.991 921.935 734.274 906.679 725.461 895.729C716.385 884.455 696.865 880.884 683.712 888.09C679.659 890.319 672.543 895.339 670.494 904.039C668.268 913.538 672.124 926.263 682.214 930.266C690.784 933.663 702.174 930.439 705.633 923.622C707.198 920.528 707.484 916.763 706.36 913.776C705.479 911.461 703.893 909.795 701.602 908.843C699.024 907.761 696.49 907.912 694.464 909.232C692.591 910.466 691.467 912.478 691.489 914.62L680.474 914.664C680.452 908.864 683.404 903.476 688.361 900.23C693.494 896.876 699.883 896.378 705.898 898.888C710.943 900.987 714.776 904.947 716.693 910.033C718.874 915.811 718.411 922.692 715.503 928.448C708.872 941.54 690.454 945.197 678.116 940.285C662.43 934.053 656.482 915.724 659.786 901.593C662.012 892.115 668.599 883.957 678.381 878.612C696.204 868.874 721.738 873.613 734.12 888.999C742.095 898.91 744.32 912.413 740.729 929.162" fill="#BC9344"/>
<path d="M1265.85 926.957C1269.01 941.585 1275.54 948.748 1283.1 957.015C1289.28 963.788 1296.27 971.448 1301.54 983.848C1308.64 1000.64 1305.05 1018.99 1292.12 1031.76C1286.92 1036.91 1276.57 1043.88 1258.8 1043.88C1252.03 1043.88 1244.17 1042.86 1235.11 1040.35L1238.11 1029.94C1258.42 1035.57 1274.83 1033.51 1284.32 1024.14C1295.94 1012.65 1295.59 997.935 1291.37 988.003C1286.85 977.313 1281.05 970.95 1274.92 964.242C1267.02 955.608 1258.86 946.649 1255.11 929.186" fill="#BC9344"/>
<path d="M1255.07 929.206C1251.45 912.457 1253.68 898.932 1261.68 889.043C1274.08 873.678 1299.64 868.918 1317.49 878.656C1327.28 884.001 1333.87 892.159 1336.1 901.637C1339.41 915.768 1333.46 934.096 1317.75 940.329C1305.38 945.241 1286.96 941.584 1280.32 928.492C1277.39 922.736 1276.95 915.854 1279.13 910.076C1281.05 904.991 1284.89 901.031 1289.94 898.932C1295.94 896.422 1302.33 896.919 1307.5 900.274C1312.46 903.52 1315.41 908.908 1315.39 914.707L1304.36 914.664C1304.36 912.522 1303.26 910.509 1301.39 909.276C1299.36 907.956 1296.82 907.804 1294.24 908.886C1291.95 909.838 1290.34 911.505 1289.48 913.82C1288.35 916.806 1288.64 920.572 1290.2 923.666C1293.67 930.483 1305.05 933.707 1313.65 930.31C1323.75 926.306 1327.61 913.582 1325.38 904.082C1323.33 895.383 1316.23 890.341 1312.15 888.134C1298.98 880.949 1279.44 884.52 1270.35 895.773C1261.53 906.722 1264.82 921.978 1265.9 926.999" fill="#BC9344"/>
<path d="M1017.05 744.121L1011.41 734.816C1065.68 703.071 1088.02 670.698 1088.24 670.373L1097.42 676.346C1096.48 677.752 1073.67 710.991 1017.05 744.099V744.121Z" fill="#BC9344"/>
<path d="M831.232 631.617C824.336 630.384 801.754 624.974 800.521 607.078C799.904 597.989 805.742 589.636 814.731 586.758C822.376 584.313 830.813 585.914 836.233 590.827C839.406 593.705 844.297 600.348 841.3 612.401L830.593 609.848C831.452 606.342 831.849 601.581 828.743 598.747C826.297 596.518 821.935 595.804 818.124 597.016C814.004 598.336 811.206 602.252 811.492 606.321C811.955 613.137 820.062 618.612 833.171 620.949L831.188 631.596L831.232 631.617Z" fill="#BC9344"/>
<path d="M1164.55 631.617L1162.57 620.97C1175.68 618.633 1183.79 613.159 1184.25 606.342C1184.54 602.274 1181.74 598.357 1177.62 597.037C1173.83 595.825 1169.47 596.539 1167 598.768C1163.89 601.581 1164.29 606.364 1165.15 609.869L1154.44 612.423C1151.47 600.37 1156.34 593.726 1159.51 590.848C1164.93 585.936 1173.37 584.335 1181.01 586.78C1190 589.658 1195.84 598.011 1195.22 607.099C1193.99 624.995 1171.41 630.405 1164.51 631.639L1164.55 631.617Z" fill="#BC9344"/>
<path d="M959.049 744.468C951.955 744.468 944.64 741.265 939.397 735.66C933.669 729.515 931.73 721.876 934.088 714.67L944.574 718.002C943.054 722.633 945.764 726.485 947.505 728.346C951.228 732.328 957 734.384 961.516 733.367C966.76 732.176 969.293 727.199 970.505 723.239L981.058 726.334C977.158 739.166 968.699 742.866 963.984 743.927C962.376 744.295 960.701 744.468 959.027 744.468H959.049Z" fill="#BC9344"/>
<path d="M981.079 726.334L970.526 723.24C974.36 710.646 949.112 678.229 899.278 654.058L904.146 644.363C959.687 671.305 986.873 707.205 981.057 726.334H981.079Z" fill="#BC9344"/>
<path d="M1025.74 766.042L1014.9 764.116C1016.33 756.391 1017.12 736.525 993.724 719.17C978.104 707.593 963.321 706.338 954.663 709.021C951.028 710.147 946.335 712.614 944.573 717.98L934.086 714.648C936.575 707.031 942.722 701.361 951.336 698.678C965.701 694.22 984.493 698.743 1000.33 710.493C1028.62 731.462 1027.5 756.304 1025.71 765.999L1025.74 766.042Z" fill="#BC9344"/>
<path d="M999.103 795.127C998.221 795.127 997.318 795.062 996.437 794.932C984.672 793.179 975.772 784.826 974.295 774.158C972.511 761.391 981.345 749.402 997.935 742.066L1002.45 751.934C990.577 757.193 984.121 764.94 985.201 772.687C986.016 778.551 991.193 783.182 998.089 784.221C1004.1 785.108 1012.48 777.079 1014.88 764.074L1025.72 766C1022.59 782.922 1011.2 795.105 999.103 795.105V795.127Z" fill="#BC9344"/>
<path d="M773.113 720.252C758.286 720.252 744.164 712.116 735.33 698.158C725.79 683.097 727.112 662.171 738.612 646.05C756.325 621.251 792.28 612.378 837.246 621.727C860.797 626.617 883.291 634.234 904.132 644.34L899.263 654.035C879.237 644.319 857.625 637.004 834.976 632.309C794.527 623.912 762.692 631.183 747.645 652.26C738.656 664.876 737.467 681.019 744.693 692.445C753.726 706.706 767.253 710.449 776.902 709.173C787.103 707.853 794.968 701.339 797.898 691.753C800.299 683.941 797.149 679.397 794.087 676.973C789.394 673.229 781.992 672.277 777.255 674.831C773.51 676.843 771.945 680.673 772.584 686.235L761.635 687.446C760.511 677.535 764.278 669.486 771.967 665.352C780.626 660.7 792.853 662.063 801.026 668.577C808.936 674.874 811.623 684.46 808.429 694.891C804.265 708.437 792.743 718.023 778.334 719.906C776.594 720.144 774.831 720.252 773.091 720.252H773.113Z" fill="#BC9344"/>
<path d="M989.1 593.9C970.902 593.9 961.583 582.02 958.719 577.519C948.761 561.852 951.272 540.623 964.579 528.094L972.202 535.906C962.596 544.951 960.812 560.359 968.06 571.763C975.066 582.756 987.954 585.85 1003.46 580.245L1007.28 590.394C1000.42 592.883 994.387 593.878 989.1 593.878V593.9Z" fill="#BC9344"/>
<path d="M999.825 574.705C991.255 574.705 984.051 571.567 979.6 565.465C972.991 556.376 972.286 538.783 992.048 519.178L999.869 526.795C985.879 540.666 984.095 553.044 988.545 559.168C992.973 565.27 1003.55 565.53 1015.49 559.86L1020.29 569.598C1013.09 573.017 1006.08 574.705 999.803 574.705H999.825Z" fill="#BC9344"/>
<path d="M902.284 1073.67C897.305 1073.67 892.194 1072.35 887.171 1069.67C876.794 1064.17 871.969 1052.19 875.693 1041.15C878.799 1031.89 888.625 1022.93 906.778 1025.53L905.192 1036.24C895.477 1034.85 888.36 1037.97 886.135 1044.57C884.439 1049.63 886.047 1056.82 892.392 1060.17C900.323 1064.37 907.814 1063.63 914.666 1057.96C927.113 1047.66 933.657 1024.25 928.413 1008.84L938.283 1006.44C945.025 1026.2 937.754 1053.03 921.76 1066.25C915.767 1071.21 909.136 1073.7 902.284 1073.7V1073.67Z" fill="#BC9344"/>
<path d="M923.668 638.716L920.65 628.307C928.845 626.013 935.675 622.096 942.879 617.963C954.82 611.103 968.347 603.313 990.797 601.539C1018.93 599.288 1032.74 588.403 1033.03 568.214C1033.1 563.626 1032.15 557.134 1027.24 552.222C1022.92 547.916 1016.42 545.73 1007.96 545.73V534.91C1019.33 534.91 1028.71 538.264 1035.08 544.626C1041.09 550.621 1044.18 558.822 1044.05 568.365C1043.78 586.521 1034.46 608.896 991.678 612.315C971.74 613.895 959.887 620.711 948.431 627.29C940.94 631.596 933.207 636.054 923.646 638.716H923.668Z" fill="#BC9344"/>
<path d="M1257.15 646.073C1239.44 621.274 1203.48 612.402 1158.52 621.75C1139.02 625.797 1120.2 631.704 1102.58 639.3L1106.99 649.211C1123.91 641.918 1142.01 636.249 1160.79 632.332C1201.23 623.936 1233.07 631.185 1248.12 652.284C1257.11 664.9 1258.3 681.043 1251.07 692.469C1242.04 706.729 1228.51 710.451 1218.86 709.196C1208.66 707.876 1200.79 701.363 1197.86 691.776C1195.46 683.964 1198.61 679.42 1201.68 676.996C1206.37 673.253 1213.77 672.301 1218.51 674.854C1222.25 676.866 1223.82 680.697 1223.18 686.258L1234.13 687.47C1235.25 677.559 1231.48 669.509 1223.79 665.376C1215.14 660.723 1202.91 662.087 1194.74 668.6C1186.83 674.897 1184.14 684.484 1187.33 694.914C1191.5 708.46 1203.02 718.047 1217.43 719.929C1219.17 720.167 1220.93 720.276 1222.67 720.276C1237.5 720.276 1251.62 712.139 1260.45 698.182C1269.99 683.12 1268.67 662.195 1257.17 646.073H1257.15Z" fill="#BC9344"/>
<path d="M1102.58 639.299C1097.31 641.571 1091.01 644.665 1084.34 647.955C1063.01 658.45 1033.78 672.84 1010.49 673.143C997.095 673.338 986.498 670.092 980.021 663.838C973.852 657.866 972.927 650.789 972.927 647.089H961.911C961.911 656.373 965.591 665.072 972.266 671.542C978.281 677.363 989.693 684.244 1010.62 683.963C1036.44 683.617 1066.98 668.599 1089.25 657.628C1095.79 654.403 1101.96 651.374 1106.99 649.21L1102.58 639.299Z" fill="#BC9344"/>
<path d="M1130.56 558.431C1116.11 546.139 1095.36 542.59 1077.69 549.385C1070.51 552.155 1053.34 560.595 1048.89 579.248C1046.14 590.566 1048.39 601.58 1055.24 610.236C1062.02 618.827 1072.77 624.042 1084.01 624.237C1100.89 624.583 1108.49 617.658 1111.97 611.837C1114.81 607.098 1117.98 596.603 1111.97 587.298C1107.19 579.919 1098.18 575.807 1089.03 576.824L1090.29 587.579C1095.29 587.017 1100.14 589.181 1102.69 593.097C1106.61 599.156 1102.67 606.06 1102.49 606.341C1099.63 611.123 1093.35 613.59 1084.23 613.395C1076.3 613.266 1068.72 609.587 1063.96 603.571C1059.23 597.555 1057.68 589.808 1059.64 581.715C1062.9 568.039 1076.19 561.568 1081.74 559.426C1095.64 554.081 1111.99 556.873 1123.38 566.567C1133.56 575.223 1138.87 588.791 1137.24 601.97C1134.4 624.908 1110.95 635.814 1106.28 637.762C1102.05 639.536 1097.96 640.921 1094.1 641.895C1074.96 646.764 1063.04 641.462 1047.95 634.732C1034.77 628.868 1019.83 622.224 997.935 622.224V633.044C1017.45 633.044 1030.65 638.909 1043.41 644.6C1054.89 649.707 1065.9 654.619 1079.96 654.619C1085.13 654.619 1090.71 653.948 1096.88 652.39C1101.26 651.286 1105.87 649.707 1110.6 647.738C1116.24 645.379 1144.6 632.135 1148.17 603.29C1150.24 586.584 1143.49 569.38 1130.58 558.409L1130.56 558.431Z" fill="#BC9344"/>
<path d="M915.853 654.662C907.085 654.662 897.149 652.736 885.23 647.759C879.59 645.4 851.236 632.157 847.667 603.311C845.596 586.605 852.338 569.402 865.248 558.431C879.7 546.139 900.454 542.59 918.123 549.385C925.305 552.155 942.467 560.595 946.939 579.27C949.693 590.587 947.424 601.58 940.594 610.236C933.809 618.805 923.058 624.042 911.822 624.237C894.946 624.561 887.367 617.68 883.864 611.837C881.022 607.098 877.85 596.603 883.864 587.298C888.645 579.919 897.634 575.807 906.799 576.824L905.543 587.579C900.542 587.017 895.695 589.181 893.139 593.119C889.218 599.178 893.183 606.081 893.338 606.362C896.202 611.145 902.547 613.59 911.579 613.417C919.533 613.287 927.111 609.608 931.87 603.593C936.607 597.577 938.149 589.83 936.188 581.758C932.906 568.06 919.643 561.59 914.069 559.448C900.167 554.103 883.82 556.894 872.43 566.589C862.252 575.245 856.942 588.813 858.572 601.991C861.414 624.929 884.856 635.836 889.526 637.783C916.118 648.906 930.13 642.652 947.865 634.754C961.039 628.889 975.977 622.246 997.876 622.246V633.066C978.356 633.066 965.159 638.93 952.403 644.621C940.947 649.728 929.887 654.641 915.831 654.641L915.853 654.662Z" fill="#BC9344"/>
<path d="M997.892 670.719V659.899C997.892 659.899 1007.06 659.553 1010.27 651.892C1013.53 644.124 1009.15 638.13 1006.35 636.052C1002.36 633.066 1001.33 633.066 997.892 633.066V622.246C1003.66 622.246 1007.03 622.96 1013.03 627.44C1020.17 632.763 1025.52 643.972 1020.45 656.026C1015.56 667.646 1003.55 670.719 997.892 670.719Z" fill="#BC9344"/>
<path d="M876.993 1134.63C855.314 1144.26 832.203 1145.41 815.129 1137.68C789.309 1125.98 782.038 1106.31 780.011 1095.62C777.235 1080.97 780.805 1066.06 789.132 1057.62C806.691 1039.81 829.119 1043.98 842.536 1055.41C850.489 1062.18 853.265 1072.66 849.564 1082.07C846.876 1088.93 839.98 1096.09 828.612 1095.92C822.443 1095.79 817.817 1093.71 815.239 1089.88C812.772 1086.22 812.397 1081.18 814.226 1076.72L804.025 1072.66C800.853 1080.36 801.624 1089.23 806.052 1095.83C810.635 1102.67 818.566 1106.54 828.392 1106.74C828.634 1106.74 828.877 1106.74 829.141 1106.74C843.087 1106.74 854.807 1098.82 859.852 1085.94C865.228 1072.22 861.262 1057.03 849.762 1047.23C832.005 1032.1 802.77 1028.23 781.223 1050.09C770.34 1061.12 765.713 1079.34 769.194 1097.61C771.618 1110.35 780.21 1133.77 810.525 1147.51C819.447 1151.55 829.714 1153.57 840.531 1153.57C853.838 1153.57 868.004 1150.52 881.531 1144.5L876.993 1134.63Z" fill="#BC9344"/>
<path d="M905.477 969.651C884.944 963.354 869.852 965.28 856.501 975.862L863.419 984.28C873.708 976.1 885.296 974.802 902.172 979.973C926.406 987.396 942.996 1025.78 925.944 1082.26C919.18 1104.7 901.313 1123.79 876.946 1134.61L881.485 1144.48C908.759 1132.34 928.808 1110.79 936.497 1085.34C950.707 1038.23 944.67 981.661 905.433 969.63L905.477 969.651Z" fill="#BC9344"/>
<path d="M923.555 638.737L920.735 628.285C929.548 625.991 936.553 621.923 943.978 617.616C955.588 610.886 968.763 603.269 990.772 601.516C1025.3 598.768 1042.37 609.415 1057.42 618.828C1063.39 622.55 1069 626.056 1075.33 628.458L1071.38 638.563C1064.03 635.794 1057.66 631.812 1051.51 627.96C1037.24 619.044 1022.52 609.848 991.653 612.293C972.156 613.851 960.656 620.494 949.552 626.921C941.797 631.401 933.8 636.032 923.533 638.715L923.555 638.737Z" fill="#BC9344"/>
<path d="M750.908 917.154L749.189 905.815C749.145 905.598 745.224 882.076 723.17 862.102C714.755 854.485 707.374 851.196 700.258 848.015C689.683 843.297 679.703 838.818 670.824 822.242C657.694 797.724 669.679 770.891 670.208 769.744L676.31 756.371L680.518 770.437C680.518 770.437 682.986 778.465 687.744 783.118C687.061 773.315 687.105 757.994 691.181 740.076C698.077 709.651 708.432 694.352 708.872 693.724L721.188 675.85L718.918 697.316C718.896 697.576 716.363 724.517 732.908 746.633C737.909 753.32 743.748 759.336 749.894 765.698C767.762 784.135 788.03 805.039 785.188 845.332C782.589 882.292 759.698 907.611 758.729 908.671L750.908 917.197V917.154ZM676.619 786.904C675.165 795.322 674.944 806.726 680.562 817.2C687.678 830.508 694.86 833.711 704.819 838.169C712.353 841.545 720.901 845.353 730.617 854.139C745.774 867.837 753.309 882.898 756.944 892.874C763.421 883.158 772.697 865.846 774.195 844.531C776.706 808.999 759.808 791.557 741.897 773.12C735.772 766.801 729.427 760.266 724.008 753.017C715.195 741.245 711.053 728.499 709.181 718.09C706.735 724.517 704.136 732.632 701.91 742.413C695.543 770.567 699.884 792.163 699.928 792.379L701.844 801.555L692.79 798.612C692.062 798.374 685.629 796.166 680.276 791.103C678.91 789.826 677.698 788.376 676.619 786.904Z" fill="#BC9344"/>
<path d="M755.618 873.895L750.683 866.148C750.683 866.148 744.933 857.189 733.829 843.794C717.416 824.015 722.946 789.414 723.21 787.942L724.4 780.779L731.053 783.96C732.155 784.48 757.975 797.074 765.422 823.929C771.459 845.72 760.641 865.109 760.179 865.91L755.64 873.895H755.618ZM733.279 798.069C732.75 808.456 733.389 826.158 742.377 836.978C747.29 842.907 751.19 847.971 754.032 851.844C755.927 845.46 757.403 836.285 754.781 826.764C750.881 812.698 740.395 803.155 733.279 798.048V798.069Z" fill="#BC9344"/>
<path d="M1244.84 917.087L1237.08 908.648C1236.11 907.587 1213.22 882.269 1210.62 845.308C1207.78 805.015 1228.05 784.111 1245.92 765.674C1252.09 759.312 1257.9 753.318 1262.9 746.61C1279.54 724.364 1276.94 697.552 1276.89 697.293L1274.62 675.826L1286.94 693.701C1287.38 694.328 1297.73 709.627 1304.63 740.053C1308.68 757.992 1308.75 773.313 1308.07 783.094C1312.83 778.442 1315.27 770.478 1315.29 770.413L1319.52 756.456L1325.6 769.742C1326.11 770.868 1338.09 797.723 1324.99 822.24C1316.11 838.816 1306.13 843.296 1295.55 848.013C1288.44 851.194 1281.06 854.483 1272.64 862.101C1250.57 882.052 1246.64 905.596 1246.62 905.813L1244.86 917.065L1244.84 917.087ZM1286.61 718.11C1284.74 728.54 1280.59 741.265 1271.78 753.037C1266.36 760.286 1260.02 766.821 1253.89 773.14C1236 791.598 1219.1 809.018 1221.59 844.551C1223.09 865.866 1232.37 883.178 1238.84 892.894C1242.48 882.896 1250.01 867.857 1265.17 854.159C1274.89 845.373 1283.44 841.543 1290.97 838.189C1300.91 833.753 1308.11 830.528 1315.23 817.22C1320.87 806.681 1320.65 795.299 1319.19 786.881C1318.11 788.374 1316.88 789.824 1315.51 791.101C1310.14 796.186 1303.7 798.372 1303 798.61L1293.92 801.574L1295.86 792.378C1295.95 791.988 1300.22 770.457 1293.88 742.411C1291.68 732.63 1289.08 724.515 1286.61 718.088V718.11Z" fill="#BC9344"/>
<path d="M1240.17 873.895L1235.63 865.931C1235.17 865.109 1224.35 845.741 1230.39 823.95C1237.81 797.095 1263.65 784.501 1264.75 783.982L1271.41 780.801L1272.6 787.964C1272.84 789.435 1278.37 824.037 1261.98 843.816C1250.87 857.189 1245.19 866.061 1245.12 866.169L1240.19 873.916L1240.17 873.895ZM1262.51 798.069C1255.39 803.155 1244.9 812.698 1241 826.785C1238.38 836.285 1239.86 845.46 1241.75 851.866C1244.62 847.992 1248.49 842.928 1253.41 836.999C1262.37 826.179 1263.04 808.5 1262.51 798.091V798.069Z" fill="#BC9344"/>
<path d="M1091.52 945.544C1073.66 914.188 1068.72 886.403 1076.85 862.989C1086.79 834.424 1112.56 823.367 1113.64 822.912L1117.96 832.866C1117.76 832.953 1095.49 842.647 1087.23 866.624C1080.22 886.987 1084.89 911.743 1101.13 940.243L1091.52 945.523V945.544Z" fill="#BC9344"/>
<path d="M1202.63 1136.93L1195.93 1128.33C1239.09 1095.85 1260.55 1062.46 1260.74 1062.12L1270.08 1067.83C1269.18 1069.26 1247.35 1103.25 1202.6 1136.9L1202.63 1136.93Z" fill="#BC9344"/>
<path d="M1132.57 984.452C1131.03 983.348 1129.2 982.158 1127.17 980.816C1110.78 970.04 1080.29 950.001 1084.94 907.306C1086.72 890.795 1095.12 879.175 1107.34 876.253C1116.93 873.959 1126.8 877.552 1131.93 885.169C1134.51 888.999 1139.38 899.451 1128.71 913.452L1119.9 906.982C1124.53 900.901 1125.54 895.275 1122.74 891.141C1120.21 887.376 1114.94 885.58 1109.96 886.77C1102.34 888.588 1097.21 896.508 1095.91 908.453C1091.97 944.656 1117.85 961.665 1133.32 971.836C1135.48 973.242 1137.42 974.541 1139.07 975.709L1132.59 984.452H1132.57Z" fill="#BC9344"/>
<path d="M1077.91 983.283C1074.23 983.283 1070.79 982.677 1067.73 981.466C1062.77 979.475 1059.16 976.012 1057.24 971.468C1054.86 965.755 1055.35 959.739 1058.59 954.979C1062.55 949.179 1069.95 945.977 1079.43 945.977V956.796C1073.83 956.796 1069.56 958.333 1067.75 960.995C1066.56 962.726 1066.45 964.976 1067.44 967.335C1068.21 969.174 1069.71 970.559 1071.89 971.446C1076.39 973.264 1083.09 972.658 1089.76 969.845L1094.1 979.799C1088.59 982.115 1083.02 983.283 1077.91 983.283Z" fill="#BC9344"/>
<path d="M1093.5 1073.67C1086.65 1073.67 1080.02 1071.18 1074.03 1066.23C1058.03 1053.01 1050.48 1026.17 1057.22 1006.42L1067.38 1008.82C1062.11 1024.23 1068.67 1047.66 1081.12 1057.94C1087.97 1063.61 1095.46 1064.35 1103.4 1060.15C1109.74 1056.79 1111.35 1049.61 1109.63 1044.55C1107.41 1037.95 1100.29 1034.85 1090.57 1036.21L1088.99 1025.5C1107.16 1022.91 1116.97 1031.89 1120.07 1041.13C1123.8 1052.16 1118.97 1064.15 1108.6 1069.65C1103.55 1072.31 1098.46 1073.65 1093.48 1073.65L1093.5 1073.67Z" fill="#BC9344"/>
<path d="M1214.57 1050.09C1193.02 1028.25 1163.79 1032.12 1146.03 1047.23C1134.53 1057.03 1130.56 1072.22 1135.94 1085.94C1140.98 1098.82 1152.7 1106.74 1166.65 1106.74C1166.89 1106.74 1167.14 1106.74 1167.4 1106.74C1177.23 1106.54 1185.16 1102.67 1189.74 1095.83C1194.17 1089.23 1194.94 1080.36 1191.77 1072.66L1181.57 1076.72C1183.39 1081.18 1183.02 1086.22 1180.55 1089.88C1177.97 1093.71 1173.35 1095.81 1167.18 1095.92C1155.92 1096.16 1148.92 1088.91 1146.23 1082.07C1142.55 1072.66 1145.3 1062.18 1153.26 1055.41C1166.65 1043.98 1189.1 1039.81 1206.66 1057.62C1214.99 1066.06 1218.56 1080.97 1215.78 1095.62C1213.75 1106.31 1206.48 1125.98 1180.66 1137.68C1163.61 1145.41 1140.48 1144.28 1118.8 1134.63L1114.26 1144.5C1127.81 1150.52 1141.95 1153.57 1155.26 1153.57C1166.08 1153.57 1176.34 1151.55 1185.27 1147.51C1215.6 1133.77 1224.17 1110.33 1226.6 1097.61C1230.06 1079.34 1225.45 1061.14 1214.57 1050.09Z" fill="#BC9344"/>
<path d="M1093.59 979.973C1110.47 974.802 1122.06 976.1 1132.35 984.28L1139.26 975.862C1125.93 965.28 1110.82 963.354 1090.29 969.651C1051.07 981.661 1045.01 1038.23 1059.22 1085.36C1066.91 1110.81 1086.96 1132.36 1114.24 1144.5L1118.77 1134.63C1094.41 1123.79 1076.56 1104.7 1069.78 1082.29C1052.73 1025.81 1069.31 987.418 1093.55 979.995L1093.59 979.973Z" fill="#BC9344"/>
<path d="M860.752 1024.66C853.105 1024.66 844.663 1022.04 837.105 1015.94C830.984 1011.01 825.017 1005.57 819.249 1000.31C809.326 991.244 799.934 982.705 790.718 977.442C777.702 970.016 769.282 971.196 764.486 973.489C759.602 975.826 756.928 980.172 756.442 983.448C755.58 989.213 757.901 994.367 762.939 997.971C769.989 1003.02 783.448 1005.46 800.067 997.206L805.017 1006.97C787.426 1015.7 768.818 1015.64 756.464 1006.82C748.022 1000.79 744.022 991.681 745.503 981.853C746.63 974.253 752.066 967.286 759.669 963.661C766.851 960.232 779.028 958.201 796.221 967.985C806.52 973.838 816.332 982.814 826.741 992.293C832.376 997.447 838.232 1002.75 844.089 1007.49C853.79 1015.31 866.188 1015.2 871.691 1010.18C877.039 1005.27 873.15 997.905 870.365 993.952L879.426 987.684C889.017 1001.22 885.614 1012.3 879.227 1018.17C874.785 1022.23 868.155 1024.66 860.774 1024.66H860.752Z" fill="white"/>
<path d="M1140.3 1023.62C1133.93 1023.62 1127.98 1021.78 1123.49 1018.07C1115.33 1011.32 1114.02 1000.23 1120.02 988.391L1129.91 993.283C1127.78 997.454 1125.06 1005.14 1130.59 1009.71C1135.72 1013.94 1146.61 1014.23 1155.96 1007.35C1163.11 1002.11 1169.97 995.772 1176.6 989.657C1185.76 981.227 1194.41 973.256 1203.68 967.993C1220.91 958.187 1233.08 960.24 1240.27 963.668C1247.88 967.294 1253.29 974.282 1254.45 981.861C1255.93 991.71 1251.92 1000.8 1243.47 1006.82C1231.11 1015.65 1212.48 1015.71 1194.87 1006.98L1199.83 997.214C1216.46 1005.47 1229.94 1003.02 1236.99 997.978C1242.06 994.375 1244.36 989.199 1243.5 983.455C1243.01 980.179 1240.33 975.811 1235.44 973.496C1230.67 971.203 1222.22 970.046 1209.19 977.449C1201.02 982.101 1192.82 989.636 1184.15 997.651C1177.29 1003.96 1170.19 1010.49 1162.56 1016.1C1155.79 1021.08 1147.78 1023.6 1140.3 1023.6V1023.62Z" fill="white"/>
<path d="M986.418 874.114C988.387 871.013 990.577 867.825 992.966 864.527C995.09 861.6 997.39 858.587 999.846 855.464C1002.08 852.624 1004.42 849.698 1006.92 846.662C1011.04 841.661 1015.46 836.376 1020.2 830.719C1032.5 816.065 1046.45 799.423 1061.87 779.091C1069.35 769.241 1077.11 759.217 1084.63 749.52C1098.86 731.175 1112.29 713.856 1123.48 698.088C1128.72 690.707 1136.82 689.549 1142.61 690.947C1148.43 692.323 1155.09 696.996 1156.33 705.907L1194.04 974.925L1204.99 973.418L1167.28 704.4C1165.6 692.388 1157.12 683.15 1145.2 680.311C1133.26 677.472 1121.47 681.862 1114.41 691.799C1103.37 707.37 1089.99 724.601 1075.85 742.859C1068.33 752.578 1060.52 762.624 1053.02 772.517C1037.76 792.631 1023.91 809.164 1011.68 823.731C1007.5 828.71 1003.56 833.406 999.846 837.926C996.129 833.427 992.192 828.732 988.011 823.731C975.778 809.164 961.931 792.653 946.667 772.517C939.169 762.624 931.382 752.578 923.839 742.859C909.682 724.601 896.321 707.37 885.26 691.799C878.204 681.862 866.413 677.45 854.468 680.311C842.523 683.15 834.073 692.388 832.392 704.4L794.676 973.418L805.626 974.925L843.341 705.907C844.602 696.975 851.239 692.323 857.056 690.947C862.874 689.549 870.948 690.707 876.191 698.088C887.384 713.835 900.811 731.175 915.035 749.52C922.556 759.217 930.32 769.219 937.775 779.069C953.193 799.402 967.151 816.021 979.45 830.698C984.184 836.354 988.631 841.639 992.723 846.64C990.29 849.698 987.967 852.668 985.799 855.573C981.286 850.025 976.309 844.107 970.934 837.664C958.546 822.901 944.522 806.172 928.927 785.621C921.494 775.815 913.73 765.813 906.253 756.159C891.963 737.705 878.447 720.299 867.143 704.356C864.732 700.949 861.414 701.146 859.667 701.561C857.919 701.976 854.888 703.286 854.313 707.414L816.642 976.126H827.813L863.914 718.683C874.045 732.551 885.504 747.314 897.515 762.82C904.992 772.474 912.734 782.432 920.123 792.195C935.873 812.964 950.008 829.802 962.462 844.653C968.589 851.947 974.208 858.674 979.229 864.92C971.089 877.085 965.802 888.332 963.966 900.387C960.869 920.632 967.306 932.994 973.234 939.786C981.176 948.893 990.312 952.103 999.846 952.103C1011.68 952.103 1018.54 948.871 1026.46 939.786C1032.39 932.994 1038.8 920.632 1035.73 900.387C1033.89 888.332 1028.6 877.106 1020.46 864.92C1025.48 858.674 1031.12 851.947 1037.23 844.653C1049.71 829.802 1063.82 812.964 1079.57 792.195C1086.98 782.432 1094.72 772.452 1102.2 762.799C1114.21 747.314 1125.67 732.529 1135.78 718.683L1171.88 976.126H1183.05L1145.38 707.414C1144.8 703.308 1141.77 701.976 1140.02 701.561C1138.28 701.146 1134.96 700.949 1132.53 704.356C1121.22 720.299 1107.71 737.705 1093.42 756.159C1085.92 765.834 1078.18 775.837 1070.72 785.643C1055.13 806.194 1041.1 822.923 1028.71 837.686C1023.32 844.107 1018.36 850.047 1013.83 855.595C1011.3 858.696 1008.94 861.666 1006.73 864.527C1004.23 867.737 1001.93 870.838 999.846 873.83C999.005 875.01 998.209 876.189 997.457 877.347C997.457 877.368 997.435 877.39 997.412 877.434C992.391 885.471 984.958 898.793 984.958 910.717C984.958 920.239 989.737 929.652 999.802 929.652C1009.87 929.652 1014.64 920.239 1014.64 910.717C1014.64 901.698 1010.4 891.892 1006.15 884.161C1008.16 881.125 1010.91 877.303 1013.3 874.114C1019.42 883.811 1023.4 892.809 1024.8 902.003C1026.77 914.976 1024.51 925.306 1018.1 932.666C1012.1 939.545 1006.77 942.122 999.868 942.122C992.258 942.122 987.635 939.567 981.64 932.666C975.225 925.284 972.969 914.976 974.938 902.003C976.331 892.809 980.313 883.811 986.441 874.114H986.418ZM999.89 917.662C999.89 917.662 999.846 917.662 999.824 917.662C999.824 917.662 999.802 917.662 999.779 917.662C997.412 917.662 994.647 916.374 994.559 909.604C994.47 902.833 1000.27 893.268 1000.27 893.268L1000.31 895.058C1001.97 898.16 1005.07 904.646 1005 909.604C1004.91 916.265 1002.21 917.619 999.868 917.64L999.89 917.662Z" fill="white"/>
<path d="M1193.59 1471.85L1171.19 1443.84L1166.94 1487.49H1171.37L1174.59 1454.85L1193.42 1478.73L1212.09 1455.19L1215.46 1487.49H1219.92L1215.64 1443.84L1193.59 1471.85Z" fill="#BC9344"/>
<path d="M1138.67 1469.96C1138.67 1479.41 1132.46 1483.71 1124.45 1483.71C1116.45 1483.71 1110.41 1479.41 1110.41 1469.96V1445.39H1105.6V1470.15C1105.6 1481.84 1114.14 1488.02 1124.45 1488.02C1134.77 1488.02 1143.3 1481.84 1143.3 1470.15V1445.39H1138.67V1469.96Z" fill="#BC9344"/>
<path d="M1073.59 1478.2L1038.93 1443.84V1487.49H1043.54V1454.68L1078.22 1489.04V1445.39H1073.59V1478.2Z" fill="#BC9344"/>
<path d="M1011.37 1445.56H1006.57V1487.49H1011.37V1445.56Z" fill="#BC9344"/>
<path d="M944.879 1449.68H961.767V1487.49H966.574V1449.68H983.462V1445.39H944.879V1449.68Z" fill="#BC9344"/>
<path d="M931.894 1487.49L909.141 1444.18L886.388 1487.49H891.371L897.765 1475.12H920.165L926.558 1487.49H931.894ZM900.08 1470.83L909.141 1453.46L918.026 1470.83H900.08Z" fill="#BC9344"/>
<path d="M843.352 1445.39H838.546V1487.49H868.067V1483.2H843.352V1445.39Z" fill="#BC9344"/>
<path d="M799.434 1445.39H782.193V1487.49H787V1470.3H799.434C808.319 1470.3 814.184 1465.49 814.184 1457.76C814.184 1450.02 808.319 1445.39 799.434 1445.39ZM799.258 1466H787V1449.68H799.258C806.203 1449.68 809.223 1452.59 809.223 1457.76C809.223 1462.92 806.203 1466 799.258 1466Z" fill="#BC9344"/>
<path d="M1317.06 1350.29L1349.03 1293.06L1380.84 1350.29H1317.06ZM1286.95 1390.39H1294.55L1313.49 1356.48H1384.26L1403.05 1390.39H1410.96L1349.18 1279.73L1286.95 1390.39ZM1078.51 1289.13H1134.84V1390.39H1141.83V1289.13H1198.32V1282.92H1078.51V1289.13ZM875.215 1314.27C875.215 1297.32 890.582 1289.13 907.029 1289.13H954.364V1339.68H907.029C890.582 1339.68 875.215 1331.21 875.215 1314.25V1314.27ZM857.842 1390.41H866.065L905.949 1345.9H954.364V1390.41H961.199V1282.94H905.949C886.393 1282.94 868.072 1294.44 868.072 1314.27C868.072 1331.36 881.719 1342.57 898.188 1345.3L857.842 1390.41ZM589.043 1390.41H595.877L611.707 1295.65L669.603 1372.84L727.499 1295.8L743.174 1390.41H750.318L731.688 1279.45L669.757 1361.64L607.673 1279.45L589.043 1390.41Z" fill="white"/>
</svg>
