<svg viewBox="515 499 989 1010" xmlns="http://www.w3.org/2000/svg">
<path d="M1144.7 1487.5H1174.46V1483.21H1149.55V1468.25H1173.21V1463.96H1149.55V1449.69H1174.46V1445.4H1144.7V1487.5Z" fill="#09BA81"/>
<path d="M1076.04 1466.53C1076.04 1480.63 1088.06 1488.01 1099.35 1488.01C1109.38 1488.01 1119.43 1482.17 1119.43 1469.79V1465.67H1095.95V1469.96H1114.6C1114.6 1479.93 1106.89 1483.72 1099.37 1483.72C1090.6 1483.72 1081.09 1478.05 1081.09 1466.53C1081.09 1456.05 1089.52 1449.35 1101.18 1449.35C1107.46 1449.35 1112.29 1450.9 1116.24 1454.85V1449.18C1112.29 1446.27 1106.38 1445.06 1101 1445.06C1087.55 1445.06 1076.09 1453.47 1076.09 1466.53H1076.04Z" fill="#09BA81"/>
<path d="M1011.51 1487.5H1016.16V1454.68L1051.13 1489.04V1445.4H1046.46V1478.22L1011.51 1443.84V1487.5Z" fill="#09BA81"/>
<path d="M946.077 1470.15C946.077 1481.84 954.675 1488.03 965.082 1488.03C975.488 1488.03 984.086 1481.84 984.086 1470.15V1445.4H979.434V1469.98C979.434 1479.43 973.151 1483.74 965.082 1483.74C957.012 1483.74 950.927 1479.45 950.927 1469.98V1445.4H946.077V1470.15Z" fill="#09BA81"/>
<path d="M897.308 1445.04C884.212 1445.04 873.652 1453.98 873.652 1466.51C873.652 1479.74 885.116 1487.99 897.308 1487.99C909.5 1487.99 921.141 1479.57 921.141 1466.51C921.141 1453.45 909.478 1445.04 897.308 1445.04ZM897.308 1483.72C887.629 1483.72 878.656 1477.52 878.656 1466.53C878.656 1456.56 886.196 1449.35 897.308 1449.35C907.34 1449.35 916.136 1455.88 916.136 1466.53C916.136 1477.19 907.538 1483.72 897.308 1483.72Z" fill="#09BA81"/>
<path d="M832.225 1445.4H827.397V1487.5H857.161V1483.21H832.225V1445.4Z" fill="#09BA81"/>
<path d="M1317.06 1350.29L1349.03 1293.06L1380.84 1350.29H1317.06ZM1286.94 1390.39H1294.55L1313.49 1356.48H1384.26L1403.04 1390.39H1410.96L1349.18 1279.73L1286.94 1390.39ZM1078.51 1289.13H1134.84V1390.39H1141.83V1289.13H1198.31V1282.92H1078.51V1289.13ZM875.212 1314.27C875.212 1297.32 890.579 1289.13 907.027 1289.13H954.362V1339.68H907.027C890.579 1339.68 875.212 1331.21 875.212 1314.25V1314.27ZM857.839 1390.41H866.063L905.946 1345.9H954.362V1390.41H961.196V1282.94H905.946C886.39 1282.94 868.069 1294.44 868.069 1314.27C868.069 1331.36 881.716 1342.57 898.186 1345.3L857.839 1390.41ZM589.04 1390.41H595.875L611.705 1295.65L669.601 1372.84L727.497 1295.8L743.172 1390.41H750.315L731.686 1279.45L669.755 1361.64L607.67 1279.45L589.04 1390.41Z" fill="white"/>
<path d="M997.893 1205.48L995.073 1203.83C993.993 1203.21 968.79 1188.23 966.3 1167.07C964.229 1149.45 967.82 1143.98 982.934 1120.93C985.82 1116.52 989.19 1111.39 993.068 1105.33L997.893 1108.32L1002.72 1105.33C1006.6 1111.39 1009.94 1116.5 1012.85 1120.93C1027.97 1144 1031.56 1149.48 1029.49 1167.07C1027.02 1188.23 1001.79 1203.21 1000.71 1203.83L997.893 1205.48ZM997.893 1118.08C995.822 1121.26 993.949 1124.13 992.209 1126.78C977.536 1149.17 975.641 1152.05 977.25 1165.81C978.704 1178.13 991.966 1188.58 997.893 1192.67C1003.8 1188.58 1017.08 1178.13 1018.54 1165.81C1020.14 1152.05 1018.27 1149.17 1003.58 1126.75C1001.86 1124.11 999.964 1121.24 997.893 1118.05V1118.08Z" fill="#09BA81"/>
<path d="M905.054 1130.28L898.18 1121.84C929.354 1097.35 956.871 1086.18 977.69 1089.53C988.265 1091.24 996.836 1096.7 1002.45 1105.31L993.178 1111.15C989.235 1105.11 983.419 1101.44 975.906 1100.22C958.479 1097.41 933.32 1108.08 905.054 1130.3V1130.28Z" fill="#09BA81"/>
<path d="M1090.73 1130.28C1062.47 1108.08 1037.31 1097.39 1019.88 1100.2C1012.37 1101.41 1006.55 1105.09 1002.61 1111.13L993.332 1105.29C998.95 1096.68 1007.52 1091.22 1018.1 1089.51C1038.94 1086.16 1066.43 1097.32 1097.61 1121.82L1090.73 1130.26V1130.28Z" fill="#09BA81"/>
<path d="M997.902 998.517C982.899 1017.41 978.25 1039.46 983.692 1065.71C986.512 1077.65 991.359 1088.75 997.88 1098.82L1004.71 1108.23C1029.34 1138.68 1070.45 1157.01 1115.66 1154.78C1136.83 1153.76 1161.09 1147.12 1184 1136.06L1188.85 1145.78C1164.63 1157.46 1138.84 1164.49 1116.21 1165.58C1113.54 1165.71 1110.9 1165.77 1108.26 1165.77C1063.64 1165.77 1023.35 1147.16 997.88 1117.08L991.051 1108.23C982.613 1096.2 976.4 1082.67 972.919 1068.02C966.332 1036.21 973.36 1008.84 993.782 986.485L997.88 982.006V998.517H997.902Z" fill="#09BA81"/>
<path d="M997.9 982.006L1002 986.485C1022.42 1008.84 1029.45 1036.21 1022.91 1067.87C1019.42 1082.59 1013.17 1096.18 1004.71 1108.23L997.878 1117.08C972.388 1147.18 932.093 1165.77 887.524 1165.77C884.902 1165.77 882.258 1165.71 879.592 1165.58C856.922 1164.49 831.124 1157.46 806.956 1145.78L811.825 1136.06C834.671 1147.12 858.949 1153.76 880.143 1154.76C925.307 1156.98 966.395 1138.68 991.048 1108.21L997.878 1098.8C1004.42 1088.71 1009.31 1077.52 1012.13 1065.54C1017.53 1039.42 1012.88 1017.39 997.9 998.495V981.984V982.006Z" fill="#09BA81"/>
<path d="M904.268 945.544L894.662 940.264C910.899 911.765 915.592 886.987 908.564 866.646C900.302 842.647 878.029 832.975 877.809 832.866L882.127 822.912C883.228 823.367 908.983 834.424 918.919 862.989C927.07 886.403 922.135 914.188 904.246 945.544H904.268Z" fill="#09BA81"/>
<path d="M793.166 1136.93C748.42 1103.28 726.61 1069.28 725.684 1067.85L735.025 1062.12C735.246 1062.44 756.792 1095.94 799.841 1128.33L793.144 1136.93H793.166Z" fill="#09BA81"/>
<path d="M863.224 984.452L856.747 975.709C858.399 974.541 860.338 973.242 862.497 971.836C877.963 961.665 903.85 944.656 899.906 908.453C898.606 896.508 893.495 888.588 885.85 886.77C880.871 885.58 875.606 887.376 873.072 891.141C870.296 895.275 871.31 900.901 875.914 906.982L867.102 913.452C856.439 899.451 861.307 889.021 863.885 885.169C869.018 877.552 878.888 873.959 888.472 876.253C900.699 879.175 909.071 890.773 910.878 907.306C915.526 950.023 885.013 970.061 868.644 980.816C866.617 982.136 864.788 983.348 863.246 984.452H863.224Z" fill="#09BA81"/>
<path d="M917.878 983.283C912.745 983.283 907.193 982.115 901.685 979.799L906.025 969.845C912.723 972.658 919.398 973.243 923.892 971.446C926.073 970.559 927.572 969.196 928.343 967.335C929.334 964.976 929.224 962.726 928.034 960.995C926.206 958.333 921.954 956.796 916.336 956.796V945.977C925.809 945.977 933.212 949.179 937.177 954.979C940.416 959.739 940.922 965.755 938.521 971.468C936.604 976.034 932.991 979.475 928.056 981.466C925.016 982.677 921.557 983.305 917.878 983.305V983.283Z" fill="#09BA81"/>
<path d="M740.69 929.205C736.923 946.669 728.771 955.606 720.906 964.262C714.781 970.992 708.987 977.332 704.471 988.022C700.263 997.955 699.91 1012.67 711.521 1024.16C720.994 1033.53 737.385 1035.59 757.676 1029.96L760.672 1040.37C751.618 1042.88 743.774 1043.9 737.011 1043.9C719.254 1043.9 708.921 1036.93 703.722 1031.78C690.812 1019.01 687.198 1000.64 694.314 983.867C699.558 971.468 706.542 963.807 712.733 957.034C720.289 948.746 726.81 941.605 729.961 926.977" fill="#09BA81"/>
<path d="M729.916 926.955C730.996 921.935 734.279 906.679 725.466 895.729C716.389 884.455 696.87 880.884 683.717 888.09C679.663 890.319 672.547 895.339 670.498 904.039C668.273 913.538 672.129 926.263 682.219 930.266C690.789 933.663 702.179 930.439 705.638 923.622C707.202 920.528 707.489 916.763 706.365 913.776C705.484 911.461 703.898 909.795 701.606 908.843C699.029 907.761 696.495 907.912 694.468 909.232C692.596 910.466 691.472 912.478 691.494 914.62L680.478 914.664C680.456 908.864 683.409 903.476 688.366 900.23C693.499 896.876 699.888 896.378 705.902 898.888C710.948 900.987 714.781 904.947 716.698 910.033C718.879 915.811 718.416 922.692 715.508 928.448C708.877 941.54 690.459 945.197 678.121 940.285C662.435 934.053 656.487 915.724 659.791 901.593C662.016 892.115 668.604 883.957 678.386 878.612C696.209 868.874 721.743 873.613 734.124 888.999C742.1 898.91 744.325 912.413 740.734 929.162" fill="#09BA81"/>
<path d="M1265.86 926.957C1269.01 941.585 1275.54 948.748 1283.11 957.015C1289.28 963.788 1296.27 971.448 1301.55 983.848C1308.65 1000.64 1305.05 1018.99 1292.13 1031.76C1286.92 1036.91 1276.58 1043.88 1258.8 1043.88C1252.03 1043.88 1244.18 1042.86 1235.11 1040.35L1238.11 1029.94C1258.43 1035.57 1274.84 1033.51 1284.32 1024.14C1295.94 1012.65 1295.59 997.935 1291.38 988.003C1286.86 977.313 1281.06 970.95 1274.92 964.242C1267.03 955.608 1258.87 946.649 1255.12 929.186" fill="#09BA81"/>
<path d="M1255.07 929.206C1251.46 912.457 1253.68 898.932 1261.69 889.043C1274.09 873.678 1299.65 868.918 1317.49 878.656C1327.28 884.001 1333.88 892.159 1336.11 901.637C1339.42 915.768 1333.46 934.096 1317.76 940.329C1305.38 945.241 1286.97 941.584 1280.33 928.492C1277.39 922.736 1276.95 915.854 1279.14 910.076C1281.05 904.991 1284.89 901.031 1289.94 898.932C1295.94 896.422 1302.34 896.919 1307.5 900.274C1312.46 903.52 1315.42 908.908 1315.4 914.707L1304.37 914.664C1304.37 912.522 1303.27 910.509 1301.39 909.276C1299.36 907.956 1296.83 907.804 1294.24 908.886C1291.95 909.838 1290.34 911.505 1289.48 913.82C1288.36 916.806 1288.64 920.572 1290.21 923.666C1293.67 930.483 1305.05 933.707 1313.65 930.31C1323.76 926.306 1327.62 913.582 1325.39 904.082C1323.34 895.383 1316.23 890.341 1312.15 888.134C1298.99 880.949 1279.44 884.52 1270.36 895.773C1261.54 906.722 1264.82 921.978 1265.9 926.999" fill="#09BA81"/>
<path d="M1017.06 744.121L1011.42 734.816C1065.68 703.071 1088.02 670.698 1088.24 670.373L1097.43 676.346C1096.48 677.752 1073.68 710.991 1017.06 744.099V744.121Z" fill="#09BA81"/>
<path d="M831.237 631.617C824.341 630.384 801.759 624.974 800.526 607.078C799.909 597.989 805.747 589.636 814.736 586.758C822.38 584.313 830.818 585.914 836.238 590.827C839.41 593.705 844.301 600.348 841.305 612.401L830.598 609.848C831.457 606.342 831.854 601.581 828.747 598.747C826.302 596.518 821.94 595.804 818.128 597.016C814.009 598.336 811.211 602.252 811.497 606.321C811.96 613.137 820.067 618.612 833.176 620.949L831.193 631.596L831.237 631.617Z" fill="#09BA81"/>
<path d="M1164.56 631.617L1162.58 620.97C1175.68 618.633 1183.79 613.159 1184.25 606.342C1184.54 602.274 1181.74 598.357 1177.62 597.037C1173.83 595.825 1169.47 596.539 1167 598.768C1163.9 601.581 1164.29 606.364 1165.15 609.869L1154.45 612.423C1151.47 600.37 1156.34 593.726 1159.51 590.848C1164.93 585.936 1173.37 584.335 1181.02 586.78C1190 589.658 1195.84 598.011 1195.23 607.099C1193.99 624.995 1171.41 630.405 1164.51 631.639L1164.56 631.617Z" fill="#09BA81"/>
<path d="M959.054 744.468C951.96 744.468 944.645 741.265 939.402 735.66C933.674 729.515 931.735 721.876 934.092 714.67L944.579 718.002C943.059 722.633 945.769 726.485 947.509 728.346C951.233 732.328 957.005 734.384 961.521 733.367C966.765 732.176 969.298 727.199 970.51 723.239L981.063 726.334C977.163 739.166 968.703 742.866 963.989 743.927C962.38 744.295 960.706 744.468 959.032 744.468H959.054Z" fill="#09BA81"/>
<path d="M981.084 726.334L970.531 723.24C974.364 710.646 949.117 678.229 899.282 654.058L904.151 644.363C959.692 671.305 986.878 707.205 981.062 726.334H981.084Z" fill="#09BA81"/>
<path d="M1025.74 766.042L1014.9 764.116C1016.33 756.391 1017.13 736.525 993.729 719.17C978.109 707.593 963.326 706.338 954.668 709.021C951.033 710.147 946.34 712.614 944.578 717.98L934.091 714.648C936.58 707.031 942.727 701.361 951.341 698.678C965.705 694.22 984.498 698.743 1000.34 710.493C1028.63 731.462 1027.5 756.304 1025.72 765.999L1025.74 766.042Z" fill="#09BA81"/>
<path d="M999.107 795.127C998.226 795.127 997.323 795.062 996.442 794.932C984.677 793.179 975.776 784.826 974.3 774.158C972.516 761.391 981.35 749.402 997.94 742.066L1002.46 751.934C990.581 757.193 984.126 764.94 985.206 772.687C986.021 778.551 991.198 783.182 998.094 784.221C1004.11 785.108 1012.48 777.079 1014.88 764.074L1025.72 766C1022.59 782.922 1011.2 795.105 999.107 795.105V795.127Z" fill="#09BA81"/>
<path d="M773.118 720.252C758.291 720.252 744.169 712.116 735.334 698.158C725.795 683.097 727.117 662.171 738.617 646.05C756.33 621.251 792.285 612.378 837.25 621.727C860.802 626.617 883.295 634.234 904.137 644.34L899.268 654.035C879.242 644.319 857.629 637.004 834.981 632.309C794.532 623.912 762.697 631.183 747.65 652.26C738.661 664.876 737.471 681.019 744.697 692.445C753.73 706.706 767.257 710.449 776.907 709.173C787.107 707.853 794.973 701.339 797.903 691.753C800.304 683.941 797.154 679.397 794.091 676.973C789.399 673.229 781.996 672.277 777.259 674.831C773.514 676.843 771.95 680.673 772.589 686.235L761.639 687.446C760.516 677.535 764.283 669.486 771.972 665.352C780.63 660.7 792.858 662.063 801.031 668.577C808.94 674.874 811.628 684.46 808.434 694.891C804.27 708.437 792.747 718.023 778.339 719.906C776.599 720.144 774.836 720.252 773.096 720.252H773.118Z" fill="#09BA81"/>
<path d="M989.104 593.9C970.907 593.9 961.588 582.02 958.724 577.519C948.765 561.852 951.277 540.623 964.584 528.094L972.207 535.906C962.601 544.951 960.816 560.359 968.065 571.763C975.071 582.756 987.959 585.85 1003.47 580.245L1007.28 590.394C1000.43 592.883 994.392 593.878 989.104 593.878V593.9Z" fill="#09BA81"/>
<path d="M999.83 574.705C991.26 574.705 984.056 571.567 979.605 565.465C972.996 556.376 972.291 538.783 992.053 519.178L999.874 526.795C985.884 540.666 984.1 553.044 988.55 559.168C992.978 565.27 1003.55 565.53 1015.49 559.86L1020.3 569.598C1013.09 573.017 1006.09 574.705 999.808 574.705H999.83Z" fill="#09BA81"/>
<path d="M902.289 1073.67C897.31 1073.67 892.199 1072.35 887.176 1069.67C876.799 1064.17 871.974 1052.19 875.697 1041.15C878.804 1031.89 888.63 1022.93 906.783 1025.53L905.197 1036.24C895.481 1034.85 888.365 1037.97 886.14 1044.57C884.444 1049.63 886.052 1056.82 892.397 1060.17C900.328 1064.37 907.819 1063.63 914.67 1057.96C927.118 1047.66 933.661 1024.25 928.418 1008.84L938.288 1006.44C945.029 1026.2 937.759 1053.03 921.765 1066.25C915.772 1071.21 909.141 1073.7 902.289 1073.7V1073.67Z" fill="#09BA81"/>
<path d="M923.673 638.716L920.654 628.307C928.85 626.013 935.68 622.096 942.884 617.963C954.825 611.103 968.352 603.313 990.802 601.539C1018.94 599.288 1032.75 588.403 1033.04 568.214C1033.1 563.626 1032.15 557.134 1027.24 552.222C1022.92 547.916 1016.42 545.73 1007.96 545.73V534.91C1019.33 534.91 1028.72 538.264 1035.08 544.626C1041.1 550.621 1044.18 558.822 1044.05 568.365C1043.79 586.521 1034.47 608.896 991.683 612.315C971.745 613.895 959.892 620.711 948.436 627.29C940.945 631.596 933.212 636.054 923.651 638.716H923.673Z" fill="#09BA81"/>
<path d="M1257.15 646.073C1239.44 621.274 1203.49 612.402 1158.52 621.75C1139.02 625.797 1120.21 631.704 1102.58 639.3L1106.99 649.211C1123.91 641.918 1142.02 636.249 1160.79 632.332C1201.24 623.936 1233.07 631.185 1248.12 652.284C1257.11 664.9 1258.3 681.043 1251.07 692.469C1242.04 706.729 1228.51 710.451 1218.86 709.196C1208.66 707.876 1200.8 701.363 1197.87 691.776C1195.47 683.964 1198.62 679.42 1201.68 676.996C1206.37 673.253 1213.78 672.301 1218.51 674.854C1222.26 676.866 1223.82 680.697 1223.18 686.258L1234.13 687.47C1235.26 677.559 1231.49 669.509 1223.8 665.376C1215.14 660.723 1202.91 662.087 1194.74 668.6C1186.83 674.897 1184.14 684.484 1187.34 694.914C1191.5 708.46 1203.02 718.047 1217.43 719.929C1219.17 720.167 1220.94 720.276 1222.68 720.276C1237.5 720.276 1251.62 712.139 1260.46 698.182C1270 683.12 1268.68 662.195 1257.18 646.073H1257.15Z" fill="#09BA81"/>
<path d="M1102.59 639.299C1097.32 641.571 1091.02 644.665 1084.34 647.955C1063.02 658.45 1033.78 672.84 1010.49 673.143C997.1 673.338 986.503 670.092 980.026 663.838C973.857 657.866 972.932 650.789 972.932 647.089H961.916C961.916 656.373 965.595 665.072 972.271 671.542C978.285 677.363 989.697 684.244 1010.63 683.963C1036.45 683.617 1066.98 668.599 1089.26 657.628C1095.8 654.403 1101.97 651.374 1106.99 649.21L1102.59 639.299Z" fill="#09BA81"/>
<path d="M1130.57 558.431C1116.11 546.139 1095.36 542.59 1077.69 549.385C1070.51 552.155 1053.35 560.595 1048.9 579.248C1046.14 590.566 1048.39 601.58 1055.24 610.236C1062.03 618.827 1072.78 624.042 1084.01 624.237C1100.89 624.583 1108.49 617.658 1111.97 611.837C1114.81 607.098 1117.99 596.603 1111.97 587.298C1107.19 579.919 1098.18 575.807 1089.04 576.824L1090.29 587.579C1095.29 587.017 1100.14 589.181 1102.7 593.097C1106.62 599.156 1102.68 606.06 1102.5 606.341C1099.64 611.123 1093.36 613.59 1084.24 613.395C1076.3 613.266 1068.73 609.587 1063.97 603.571C1059.23 597.555 1057.69 589.808 1059.65 581.715C1062.91 568.039 1076.19 561.568 1081.75 559.426C1095.65 554.081 1111.99 556.873 1123.38 566.567C1133.56 575.223 1138.87 588.791 1137.24 601.97C1134.4 624.908 1110.96 635.814 1106.29 637.762C1102.06 639.536 1097.96 640.921 1094.11 641.895C1074.96 646.764 1063.04 641.462 1047.95 634.732C1034.78 628.868 1019.84 622.224 997.939 622.224V633.044C1017.46 633.044 1030.66 638.909 1043.41 644.6C1054.89 649.707 1065.91 654.619 1079.96 654.619C1085.14 654.619 1090.71 653.948 1096.88 652.39C1101.27 651.286 1105.87 649.707 1110.61 647.738C1116.25 645.379 1144.6 632.135 1148.17 603.29C1150.24 586.584 1143.5 569.38 1130.59 558.409L1130.57 558.431Z" fill="#09BA81"/>
<path d="M915.858 654.662C907.09 654.662 897.154 652.736 885.235 647.759C879.595 645.4 851.241 632.157 847.672 603.311C845.601 586.605 852.342 569.402 865.253 558.431C879.705 546.139 900.458 542.59 918.127 549.385C925.31 552.155 942.472 560.595 946.944 579.27C949.698 590.587 947.429 601.58 940.599 610.236C933.814 618.805 923.062 624.042 911.827 624.237C894.951 624.561 887.372 617.68 883.869 611.837C881.027 607.098 877.855 596.603 883.869 587.298C888.65 579.919 897.639 575.807 906.803 576.824L905.548 587.579C900.547 587.017 895.7 589.181 893.144 593.119C889.223 599.178 893.188 606.081 893.342 606.362C896.206 611.145 902.551 613.59 911.584 613.417C919.538 613.287 927.116 609.608 931.875 603.593C936.612 597.577 938.154 589.83 936.193 581.758C932.91 568.06 919.648 561.59 914.074 559.448C900.172 554.103 883.825 556.894 872.435 566.589C862.256 575.245 856.947 588.813 858.577 601.991C861.419 624.929 884.86 635.836 889.531 637.783C916.123 648.906 930.134 642.652 947.87 634.754C961.044 628.889 975.981 622.246 997.88 622.246V633.066C978.361 633.066 965.164 638.93 952.408 644.621C940.952 649.728 929.892 654.641 915.836 654.641L915.858 654.662Z" fill="#09BA81"/>
<path d="M997.896 670.719V659.899C997.896 659.899 1007.06 659.553 1010.28 651.892C1013.54 644.124 1009.15 638.13 1006.36 636.052C1002.37 633.066 1001.33 633.066 997.896 633.066V622.246C1003.67 622.246 1007.04 622.96 1013.03 627.44C1020.17 632.763 1025.52 643.972 1020.46 656.026C1015.57 667.646 1003.56 670.719 997.896 670.719Z" fill="#09BA81"/>
<path d="M876.997 1134.63C855.319 1144.26 832.208 1145.41 815.134 1137.68C789.313 1125.98 782.043 1106.31 780.016 1095.62C777.24 1080.97 780.809 1066.06 789.137 1057.62C806.696 1039.81 829.124 1043.98 842.541 1055.41C850.494 1062.18 853.27 1072.66 849.569 1082.07C846.881 1088.93 839.985 1096.09 828.617 1095.92C822.448 1095.79 817.822 1093.71 815.244 1089.88C812.777 1086.22 812.402 1081.18 814.231 1076.72L804.03 1072.66C800.858 1080.36 801.629 1089.23 806.057 1095.83C810.64 1102.67 818.571 1106.54 828.397 1106.74C828.639 1106.74 828.881 1106.74 829.146 1106.74C843.091 1106.74 854.812 1098.82 859.857 1085.94C865.233 1072.22 861.267 1057.03 849.767 1047.23C832.01 1032.1 802.774 1028.23 781.228 1050.09C770.345 1061.12 765.718 1079.34 769.199 1097.61C771.622 1110.35 780.215 1133.77 810.529 1147.51C819.452 1151.55 829.719 1153.57 840.536 1153.57C853.843 1153.57 868.009 1150.52 881.536 1144.5L876.997 1134.63Z" fill="#09BA81"/>
<path d="M905.481 969.651C884.948 963.354 869.857 965.28 856.506 975.862L863.424 984.28C873.713 976.1 885.301 974.802 902.177 979.973C926.411 987.396 943.001 1025.78 925.948 1082.26C919.185 1104.7 901.318 1123.79 876.951 1134.61L881.49 1144.48C908.764 1132.34 928.812 1110.79 936.501 1085.34C950.711 1038.23 944.675 981.661 905.437 969.63L905.481 969.651Z" fill="#09BA81"/>
<path d="M923.56 638.737L920.74 628.285C929.552 625.991 936.558 621.923 943.983 617.616C955.593 610.886 968.768 603.269 990.777 601.516C1025.3 598.768 1042.37 609.415 1057.42 618.828C1063.39 622.55 1069.01 626.056 1075.33 628.458L1071.39 638.563C1064.03 635.794 1057.66 631.812 1051.52 627.96C1037.24 619.044 1022.52 609.848 991.658 612.293C972.161 613.851 960.66 620.494 949.557 626.921C941.802 631.401 933.804 636.032 923.538 638.715L923.56 638.737Z" fill="#09BA81"/>
<path d="M750.912 917.154L749.194 905.815C749.15 905.598 745.228 882.076 723.175 862.102C714.759 854.485 707.379 851.196 700.263 848.015C689.688 843.297 679.708 838.818 670.829 822.242C657.699 797.724 669.684 770.891 670.212 769.744L676.315 756.371L680.523 770.437C680.523 770.437 682.99 778.465 687.749 783.118C687.066 773.315 687.11 757.994 691.186 740.076C698.082 709.651 708.436 694.352 708.877 693.724L721.192 675.85L718.923 697.316C718.901 697.576 716.368 724.517 732.913 746.633C737.914 753.32 743.752 759.336 749.899 765.698C767.766 784.135 788.035 805.039 785.193 845.332C782.593 882.292 759.703 907.611 758.734 908.671L750.912 917.197V917.154ZM676.623 786.904C675.169 795.322 674.949 806.726 680.567 817.2C687.683 830.508 694.865 833.711 704.823 838.169C712.358 841.545 720.906 845.353 730.622 854.139C745.779 867.837 753.314 882.898 756.949 892.874C763.426 883.158 772.701 865.846 774.199 844.531C776.711 808.999 759.813 791.557 741.902 773.12C735.777 766.801 729.432 760.266 724.012 753.017C715.2 741.245 711.058 728.499 709.185 718.09C706.74 724.517 704.14 732.632 701.915 742.413C695.548 770.567 699.888 792.163 699.932 792.379L701.849 801.555L692.794 798.612C692.067 798.374 685.634 796.166 680.281 791.103C678.915 789.826 677.703 788.376 676.623 786.904Z" fill="#09BA81"/>
<path d="M755.623 873.895L750.688 866.148C750.688 866.148 744.938 857.189 733.834 843.794C717.421 824.015 722.951 789.414 723.215 787.942L724.405 780.779L731.058 783.96C732.16 784.48 757.98 797.074 765.427 823.929C771.463 845.72 760.646 865.109 760.183 865.91L755.645 873.895H755.623ZM733.283 798.069C732.755 808.456 733.393 826.158 742.382 836.978C747.295 842.907 751.195 847.971 754.037 851.844C755.931 845.46 757.407 836.285 754.786 826.764C750.886 812.698 740.399 803.155 733.283 798.048V798.069Z" fill="#09BA81"/>
<path d="M1244.84 917.087L1237.09 908.648C1236.12 907.587 1213.23 882.269 1210.63 845.308C1207.79 805.015 1228.05 784.111 1245.92 765.674C1252.09 759.312 1257.91 753.318 1262.91 746.61C1279.54 724.364 1276.94 697.552 1276.9 697.293L1274.63 675.826L1286.94 693.701C1287.38 694.328 1297.74 709.627 1304.63 740.053C1308.69 757.992 1308.75 773.313 1308.07 783.094C1312.83 778.442 1315.28 770.478 1315.3 770.413L1319.53 756.456L1325.61 769.742C1326.11 770.868 1338.1 797.723 1324.99 822.24C1316.11 838.816 1306.13 843.296 1295.56 848.013C1288.44 851.194 1281.06 854.483 1272.65 862.101C1250.57 882.052 1246.65 905.596 1246.63 905.813L1244.86 917.065L1244.84 917.087ZM1286.61 718.11C1284.74 728.54 1280.6 741.265 1271.79 753.037C1266.37 760.286 1260.02 766.821 1253.9 773.14C1236.01 791.598 1219.11 809.018 1221.6 844.551C1223.1 865.866 1232.37 883.178 1238.85 892.894C1242.48 882.896 1250.02 867.857 1265.18 854.159C1274.89 845.373 1283.44 841.543 1290.98 838.189C1300.91 833.753 1308.12 830.528 1315.23 817.22C1320.87 806.681 1320.65 795.299 1319.2 786.881C1318.12 788.374 1316.88 789.824 1315.52 791.101C1310.14 796.186 1303.71 798.372 1303 798.61L1293.93 801.574L1295.87 792.378C1295.95 791.988 1300.23 770.457 1293.88 742.411C1291.68 732.63 1289.08 724.515 1286.61 718.088V718.11Z" fill="#09BA81"/>
<path d="M1240.17 873.895L1235.63 865.931C1235.17 865.109 1224.35 845.741 1230.39 823.95C1237.81 797.095 1263.66 784.501 1264.76 783.982L1271.41 780.801L1272.6 787.964C1272.84 789.435 1278.37 824.037 1261.98 843.816C1250.88 857.189 1245.2 866.061 1245.13 866.169L1240.19 873.916L1240.17 873.895ZM1262.51 798.069C1255.4 803.155 1244.91 812.698 1241.01 826.785C1238.39 836.285 1239.86 845.46 1241.76 851.866C1244.62 847.992 1248.5 842.928 1253.41 836.999C1262.38 826.179 1263.04 808.5 1262.51 798.091V798.069Z" fill="#09BA81"/>
<path d="M1091.53 945.544C1073.66 914.188 1068.73 886.403 1076.85 862.989C1086.79 834.424 1112.57 823.367 1113.65 822.912L1117.97 832.866C1117.77 832.953 1095.49 842.647 1087.23 866.624C1080.23 886.987 1084.9 911.743 1101.13 940.243L1091.53 945.523V945.544Z" fill="#09BA81"/>
<path d="M1202.63 1136.93L1195.93 1128.33C1239.09 1095.85 1260.55 1062.46 1260.75 1062.12L1270.09 1067.83C1269.19 1069.26 1247.35 1103.25 1202.61 1136.9L1202.63 1136.93Z" fill="#09BA81"/>
<path d="M1132.57 984.452C1131.03 983.348 1129.2 982.158 1127.18 980.816C1110.78 970.04 1080.29 950.001 1084.94 907.306C1086.73 890.795 1095.12 879.175 1107.35 876.253C1116.93 873.959 1126.8 877.552 1131.93 885.169C1134.51 888.999 1139.38 899.451 1128.72 913.452L1119.91 906.982C1124.53 900.901 1125.55 895.275 1122.75 891.141C1120.21 887.376 1114.95 885.58 1109.97 886.77C1102.35 888.588 1097.21 896.508 1095.91 908.453C1091.97 944.656 1117.86 961.665 1133.32 971.836C1135.48 973.242 1137.42 974.541 1139.07 975.709L1132.6 984.452H1132.57Z" fill="#09BA81"/>
<path d="M1077.91 983.283C1074.23 983.283 1070.8 982.677 1067.73 981.466C1062.78 979.475 1059.16 976.012 1057.25 971.468C1054.87 965.755 1055.35 959.739 1058.59 954.979C1062.56 949.179 1069.96 945.977 1079.43 945.977V956.796C1073.84 956.796 1069.56 958.333 1067.76 960.995C1066.57 962.726 1066.46 964.976 1067.45 967.335C1068.22 969.174 1069.72 970.559 1071.9 971.446C1076.39 973.264 1083.09 972.658 1089.77 969.845L1094.11 979.799C1088.6 982.115 1083.02 983.283 1077.91 983.283Z" fill="#09BA81"/>
<path d="M1093.51 1073.67C1086.66 1073.67 1080.03 1071.18 1074.03 1066.23C1058.04 1053.01 1050.48 1026.17 1057.22 1006.42L1067.38 1008.82C1062.11 1024.23 1068.68 1047.66 1081.13 1057.94C1087.98 1063.61 1095.47 1064.35 1103.4 1060.15C1109.75 1056.79 1111.35 1049.61 1109.64 1044.55C1107.41 1037.95 1100.29 1034.85 1090.58 1036.21L1088.99 1025.5C1107.17 1022.91 1116.97 1031.89 1120.08 1041.13C1123.8 1052.16 1118.98 1064.15 1108.6 1069.65C1103.55 1072.31 1098.47 1073.65 1093.49 1073.65L1093.51 1073.67Z" fill="#09BA81"/>
<path d="M1214.57 1050.09C1193.03 1028.25 1163.79 1032.12 1146.03 1047.23C1134.53 1057.03 1130.57 1072.22 1135.94 1085.94C1140.99 1098.82 1152.71 1106.74 1166.66 1106.74C1166.9 1106.74 1167.14 1106.74 1167.4 1106.74C1177.23 1106.54 1185.16 1102.67 1189.74 1095.83C1194.17 1089.23 1194.94 1080.36 1191.77 1072.66L1181.57 1076.72C1183.4 1081.18 1183.02 1086.22 1180.56 1089.88C1177.98 1093.71 1173.35 1095.81 1167.18 1095.92C1155.93 1096.16 1148.92 1088.91 1146.23 1082.07C1142.55 1072.66 1145.31 1062.18 1153.26 1055.41C1166.66 1043.98 1189.11 1039.81 1206.66 1057.62C1214.99 1066.06 1218.56 1080.97 1215.78 1095.62C1213.76 1106.31 1206.49 1125.98 1180.67 1137.68C1163.61 1145.41 1140.48 1144.28 1118.8 1134.63L1114.27 1144.5C1127.81 1150.52 1141.96 1153.57 1155.27 1153.57C1166.08 1153.57 1176.35 1151.55 1185.27 1147.51C1215.61 1133.77 1224.18 1110.33 1226.6 1097.61C1230.06 1079.34 1225.46 1061.14 1214.57 1050.09Z" fill="#09BA81"/>
<path d="M1093.6 979.973C1110.47 974.802 1122.06 976.1 1132.35 984.28L1139.27 975.862C1125.94 965.28 1110.83 963.354 1090.29 969.651C1051.08 981.661 1045.02 1038.23 1059.23 1085.36C1066.92 1110.81 1086.97 1132.36 1114.24 1144.5L1118.78 1134.63C1094.41 1123.79 1076.57 1104.7 1069.78 1082.29C1052.73 1025.81 1069.32 987.418 1093.55 979.995L1093.6 979.973Z" fill="#09BA81"/>
<path d="M860.756 1024.66C853.11 1024.66 844.668 1022.04 837.11 1015.94C830.988 1011.01 825.022 1005.57 819.254 1000.31C809.331 991.244 799.939 982.705 790.723 977.442C777.706 970.016 769.287 971.196 764.491 973.489C759.607 975.826 756.933 980.172 756.447 983.448C755.585 989.213 757.905 994.367 762.944 997.971C769.994 1003.02 783.452 1005.46 800.071 997.206L805.021 1006.97C787.43 1015.7 768.822 1015.64 756.469 1006.82C748.027 1000.79 744.027 991.681 745.507 981.853C746.635 974.253 752.071 967.286 759.673 963.661C766.856 960.232 779.032 958.201 796.226 967.985C806.524 973.838 816.336 982.814 826.745 992.293C832.381 997.447 838.237 1002.75 844.093 1007.49C853.795 1015.31 866.193 1015.2 871.696 1010.18C877.044 1005.27 873.154 997.905 870.37 993.952L879.431 987.684C889.022 1001.22 885.618 1012.3 879.232 1018.17C874.79 1022.23 868.16 1024.66 860.779 1024.66H860.756Z" fill="white"/>
<path d="M1140.31 1023.62C1133.94 1023.62 1127.99 1021.78 1123.49 1018.07C1115.33 1011.32 1114.03 1000.23 1120.02 988.391L1129.91 993.283C1127.79 997.454 1125.07 1005.14 1130.6 1009.71C1135.73 1013.94 1146.61 1014.23 1155.97 1007.35C1163.11 1002.11 1169.97 995.772 1176.61 989.657C1185.76 981.227 1194.41 973.256 1203.68 967.993C1220.91 958.187 1233.08 960.24 1240.27 963.668C1247.88 967.294 1253.3 974.282 1254.45 981.861C1255.93 991.71 1251.93 1000.8 1243.48 1006.82C1231.11 1015.65 1212.49 1015.71 1194.88 1006.98L1199.83 997.214C1216.47 1005.47 1229.94 1003.02 1237 997.978C1242.06 994.375 1244.36 989.199 1243.5 983.455C1243.01 980.179 1240.34 975.811 1235.45 973.496C1230.67 971.203 1222.22 970.046 1209.19 977.449C1201.03 982.101 1192.82 989.636 1184.15 997.651C1177.29 1003.96 1170.19 1010.49 1162.56 1016.1C1155.79 1021.08 1147.78 1023.6 1140.31 1023.6V1023.62Z" fill="white"/>
<path d="M986.423 874.114C988.392 871.013 990.582 867.825 992.971 864.527C995.094 861.6 997.395 858.587 999.85 855.464C1002.08 852.624 1004.43 849.698 1006.93 846.662C1011.04 841.661 1015.47 836.376 1020.2 830.719C1032.5 816.065 1046.46 799.423 1061.88 779.091C1069.35 769.241 1077.12 759.217 1084.64 749.52C1098.86 731.175 1112.29 713.856 1123.48 698.088C1128.73 690.707 1136.82 689.549 1142.62 690.947C1148.44 692.323 1155.09 696.996 1156.33 705.907L1194.05 974.925L1205 973.418L1167.28 704.4C1165.6 692.388 1157.13 683.15 1145.21 680.311C1133.26 677.472 1121.47 681.862 1114.41 691.799C1103.38 707.37 1089.99 724.601 1075.86 742.859C1068.34 752.578 1060.53 762.624 1053.03 772.517C1037.77 792.631 1023.92 809.164 1011.68 823.731C1007.5 828.71 1003.57 833.406 999.85 837.926C996.134 833.427 992.197 828.732 988.016 823.731C975.783 809.164 961.935 792.653 946.672 772.517C939.173 762.624 931.387 752.578 923.843 742.859C909.686 724.601 896.325 707.37 885.265 691.799C878.208 681.862 866.418 677.45 854.473 680.311C842.528 683.15 834.077 692.388 832.396 704.4L794.68 973.418L805.63 974.925L843.346 705.907C844.607 696.975 851.243 692.323 857.061 690.947C862.879 689.549 870.953 690.707 876.195 698.088C887.388 713.835 900.816 731.175 915.039 749.52C922.56 759.217 930.325 769.219 937.78 779.069C953.198 799.402 967.156 816.021 979.455 830.698C984.189 836.354 988.635 841.639 992.728 846.64C990.294 849.698 987.972 852.668 985.804 855.573C981.291 850.025 976.314 844.107 970.939 837.664C958.551 822.901 944.526 806.172 928.931 785.621C921.499 775.815 913.734 765.813 906.257 756.159C891.967 737.705 878.452 720.299 867.148 704.356C864.737 700.949 861.419 701.146 859.671 701.561C857.924 701.976 854.893 703.286 854.318 707.414L816.646 976.126H827.817L863.918 718.683C874.05 732.551 885.508 747.314 897.52 762.82C904.997 772.474 912.739 782.432 920.127 792.195C935.877 812.964 950.012 829.802 962.466 844.653C968.594 851.947 974.212 858.674 979.234 864.92C971.093 877.085 965.807 888.332 963.971 900.387C960.874 920.632 967.311 932.994 973.239 939.786C981.18 948.893 990.316 952.103 999.85 952.103C1011.68 952.103 1018.54 948.871 1026.46 939.786C1032.39 932.994 1038.81 920.632 1035.73 900.387C1033.89 888.332 1028.61 877.106 1020.47 864.92C1025.49 858.674 1031.13 851.947 1037.23 844.653C1049.71 829.802 1063.82 812.964 1079.57 792.195C1086.98 782.432 1094.73 772.452 1102.2 762.799C1114.21 747.314 1125.67 732.529 1135.78 718.683L1171.88 976.126H1183.05L1145.38 707.414C1144.81 703.308 1141.78 701.976 1140.03 701.561C1138.28 701.146 1134.96 700.949 1132.53 704.356C1121.23 720.299 1107.71 737.705 1093.42 756.159C1085.92 765.834 1078.18 775.837 1070.73 785.643C1055.13 806.194 1041.11 822.923 1028.72 837.686C1023.32 844.107 1018.37 850.047 1013.83 855.595C1011.31 858.696 1008.94 861.666 1006.73 864.527C1004.23 867.737 1001.93 870.838 999.85 873.83C999.01 875.01 998.213 876.189 997.461 877.347C997.461 877.368 997.439 877.39 997.417 877.434C992.396 885.471 984.963 898.793 984.963 910.717C984.963 920.239 989.741 929.652 999.806 929.652C1009.87 929.652 1014.65 920.239 1014.65 910.717C1014.65 901.698 1010.4 891.892 1006.15 884.161C1008.17 881.125 1010.91 877.303 1013.3 874.114C1019.43 883.811 1023.41 892.809 1024.8 902.003C1026.77 914.976 1024.52 925.306 1018.1 932.666C1012.11 939.545 1006.77 942.122 999.873 942.122C992.263 942.122 987.64 939.567 981.645 932.666C975.23 925.284 972.974 914.976 974.942 902.003C976.336 892.809 980.318 883.811 986.445 874.114H986.423ZM999.895 917.662C999.895 917.662 999.85 917.662 999.828 917.662C999.828 917.662 999.806 917.662 999.784 917.662C997.417 917.662 994.652 916.374 994.564 909.604C994.475 902.833 1000.27 893.268 1000.27 893.268L1000.31 895.058C1001.97 898.16 1005.07 904.646 1005 909.604C1004.92 916.265 1002.22 917.619 999.873 917.64L999.895 917.662Z" fill="white"/>
</svg>
